<svg xmlns="http://www.w3.org/2000/svg" fill-rule="evenodd" stroke-linejoin="round" stroke-miterlimit="2" clip-rule="evenodd" viewBox="0 0 2250 2250"><path fill="none" d="M0 0h2250v2250H0z"/><path fill="#223750" d="M2125 625c0-275.958-224.042-500-500-500H625c-275.958 0-500 224.042-500 500v1000c0 275.958 224.042 500 500 500h1000c275.958 0 500-224.042 500-500V625z"/><clipPath id="a"><path d="M2125 625c0-275.958-224.042-500-500-500H625c-275.958 0-500 224.042-500 500v1000c0 275.958 224.042 500 500 500h1000c275.958 0 500-224.042 500-500V625z"/></clipPath><g clip-path="url(#a)"><g fill="#ffba10"><path d="M308.156 669.792l27.966 16.145v32.292l-27.966 16.146-27.965-16.146v-32.292l27.965-16.145zM372.74 669.792l27.965 16.145v32.292l-27.965 16.146-27.966-16.146v-32.292l27.966-16.145zM437.323 669.792l27.965 16.145v32.292l-27.965 16.146-27.965-16.146v-32.292l27.965-16.145zM501.906 669.792l27.966 16.145v32.292l-27.966 16.146-27.965-16.146v-32.292l27.965-16.145zM566.49 669.792l27.965 16.145v32.292l-27.965 16.146-27.966-16.146v-32.292l27.966-16.145zM308.156 453.125l27.966 16.146v32.291l-27.966 16.146-27.965-16.146v-32.291l27.965-16.146zM275.865 507.292l27.965 16.145v32.292l-27.965 16.146-27.966-16.146v-32.292l27.966-16.145zM340.448 507.292l27.965 16.145v32.292l-27.965 16.146-27.965-16.146v-32.292l27.965-16.145zM308.156 561.458l27.966 16.146v32.292l-27.966 16.146-27.965-16.146v-32.292l27.965-16.146zM275.865 615.625l27.965 16.146v32.291l-27.965 16.146-27.966-16.146v-32.291l27.966-16.146zM340.448 615.625l27.965 16.146v32.291l-27.965 16.146-27.965-16.146v-32.291l27.965-16.146zM372.74 453.125l27.965 16.146v32.291l-27.965 16.146-27.966-16.146v-32.291l27.966-16.146zM437.323 453.125l27.965 16.146v32.291l-27.965 16.146-27.965-16.146v-32.291l27.965-16.146zM405.031 507.292l27.966 16.145v32.292l-27.966 16.146-27.965-16.146v-32.292l27.965-16.145zM469.615 507.292l27.965 16.145v32.292l-27.965 16.146-27.966-16.146v-32.292l27.966-16.145zM501.906 453.125l27.966 16.146v32.291l-27.966 16.146-27.965-16.146v-32.291l27.965-16.146zM566.49 453.125l27.965 16.146v32.291l-27.965 16.146-27.966-16.146v-32.291l27.966-16.146zM534.198 507.292l27.965 16.145v32.292l-27.965 16.146-27.965-16.146v-32.292l27.965-16.145zM598.781 507.292l27.966 16.145v32.292l-27.966 16.146-27.965-16.146v-32.292l27.965-16.145zM372.74 561.458l27.965 16.146v32.292l-27.965 16.146-27.966-16.146v-32.292l27.966-16.146zM437.323 561.458l27.965 16.146v32.292l-27.965 16.146-27.965-16.146v-32.292l27.965-16.146zM405.031 615.625l27.966 16.146v32.291l-27.966 16.146-27.965-16.146v-32.291l27.965-16.146zM469.615 615.625l27.965 16.146v32.291l-27.965 16.146-27.966-16.146v-32.291l27.966-16.146zM501.906 561.458l27.966 16.146v32.292l-27.966 16.146-27.965-16.146v-32.292l27.965-16.146zM566.49 561.458l27.965 16.146v32.292l-27.965 16.146-27.966-16.146v-32.292l27.966-16.146zM534.198 615.625l27.965 16.146v32.291l-27.965 16.146-27.965-16.146v-32.291l27.965-16.146zM598.781 615.625l27.966 16.146v32.291l-27.966 16.146-27.965-16.146v-32.291l27.965-16.146zM631.073 669.792l27.965 16.145v32.292l-27.965 16.146-27.965-16.146v-32.292l27.965-16.145zM695.656 669.792l27.966 16.145v32.292l-27.966 16.146-27.965-16.146v-32.292l27.965-16.145zM727.948 723.958l27.965 16.146v32.292l-27.965 16.146-27.965-16.146v-32.292l27.965-16.146zM760.24 669.792l27.965 16.145v32.292l-27.965 16.146-27.966-16.146v-32.292l27.966-16.145zM824.823 669.792l27.965 16.145v32.292l-27.965 16.146-27.965-16.146v-32.292l27.965-16.145zM792.531 723.958l27.966 16.146v32.292l-27.966 16.146-27.965-16.146v-32.292l27.965-16.146zM857.115 723.958l27.965 16.146v32.292l-27.965 16.146-27.966-16.146v-32.292l27.966-16.146zM889.406 669.792l27.966 16.145v32.292l-27.966 16.146-27.965-16.146v-32.292l27.965-16.145zM953.99 669.792l27.965 16.145v32.292l-27.965 16.146-27.966-16.146v-32.292l27.966-16.145zM921.698 723.958l27.965 16.146v32.292l-27.965 16.146-27.965-16.146v-32.292l27.965-16.146zM986.281 723.958l27.966 16.146v32.292l-27.966 16.146-27.965-16.146v-32.292l27.965-16.146zM1018.57 669.792l27.965 16.145v32.292l-27.965 16.146-27.965-16.146v-32.292l27.965-16.145zM1083.16 669.792l27.966 16.145v32.292l-27.966 16.146-27.965-16.146v-32.292l27.965-16.145zM1050.87 723.958l27.965 16.146v32.292l-27.965 16.146-27.966-16.146v-32.292l27.966-16.146zM1115.45 723.958l27.965 16.146v32.292l-27.965 16.146-27.965-16.146v-32.292l27.965-16.146zM953.99 778.125l27.965 16.146v32.291l-27.965 16.146-27.966-16.146v-32.291l27.966-16.146zM1018.57 778.125l27.965 16.146v32.291l-27.965 16.146-27.965-16.146v-32.291l27.965-16.146zM1083.16 778.125l27.966 16.146v32.291l-27.966 16.146-27.965-16.146v-32.291l27.965-16.146zM1050.87 832.292l27.965 16.145v32.292l-27.965 16.146-27.966-16.146v-32.292l27.966-16.145zM1115.45 832.292l27.965 16.145v32.292l-27.965 16.146-27.965-16.146v-32.292l27.965-16.145zM631.073 453.125l27.965 16.146v32.291l-27.965 16.146-27.965-16.146v-32.291l27.965-16.146zM695.656 453.125l27.966 16.146v32.291l-27.966 16.146-27.965-16.146v-32.291l27.965-16.146zM663.365 507.292l27.965 16.145v32.292l-27.965 16.146-27.966-16.146v-32.292l27.966-16.145zM727.948 507.292l27.965 16.145v32.292l-27.965 16.146-27.965-16.146v-32.292l27.965-16.145zM760.24 453.125l27.965 16.146v32.291l-27.965 16.146-27.966-16.146v-32.291l27.966-16.146zM824.823 453.125l27.965 16.146v32.291l-27.965 16.146-27.965-16.146v-32.291l27.965-16.146zM792.531 507.292l27.966 16.145v32.292l-27.966 16.146-27.965-16.146v-32.292l27.965-16.145zM857.115 507.292l27.965 16.145v32.292l-27.965 16.146-27.966-16.146v-32.292l27.966-16.145zM631.073 561.458l27.965 16.146v32.292l-27.965 16.146-27.965-16.146v-32.292l27.965-16.146zM695.656 561.458l27.966 16.146v32.292l-27.966 16.146-27.965-16.146v-32.292l27.965-16.146zM663.365 615.625l27.965 16.146v32.291l-27.965 16.146-27.966-16.146v-32.291l27.966-16.146zM727.948 615.625l27.965 16.146v32.291l-27.965 16.146-27.965-16.146v-32.291l27.965-16.146zM760.24 561.458l27.965 16.146v32.292l-27.965 16.146-27.966-16.146v-32.292l27.966-16.146zM824.823 561.458l27.965 16.146v32.292l-27.965 16.146-27.965-16.146v-32.292l27.965-16.146zM792.531 615.625l27.966 16.146v32.291l-27.966 16.146-27.965-16.146v-32.291l27.965-16.146zM857.115 615.625l27.965 16.146v32.291l-27.965 16.146-27.966-16.146v-32.291l27.966-16.146zM889.406 453.125l27.966 16.146v32.291l-27.966 16.146-27.965-16.146v-32.291l27.965-16.146zM953.99 453.125l27.965 16.146v32.291l-27.965 16.146-27.966-16.146v-32.291l27.966-16.146zM921.698 507.292l27.965 16.145v32.292l-27.965 16.146-27.965-16.146v-32.292l27.965-16.145zM986.281 507.292l27.966 16.145v32.292l-27.966 16.146-27.965-16.146v-32.292l27.965-16.145zM1018.57 453.125l27.965 16.146v32.291l-27.965 16.146-27.965-16.146v-32.291l27.965-16.146zM1050.87 507.292l27.965 16.145v32.292l-27.965 16.146-27.966-16.146v-32.292l27.966-16.145zM1115.45 507.292l27.965 16.145v32.292l-27.965 16.146-27.965-16.146v-32.292l27.965-16.145zM889.406 561.458l27.966 16.146v32.292l-27.966 16.146-27.965-16.146v-32.292l27.965-16.146zM953.99 561.458l27.965 16.146v32.292l-27.965 16.146-27.966-16.146v-32.292l27.966-16.146zM921.698 615.625l27.965 16.146v32.291l-27.965 16.146-27.965-16.146v-32.291l27.965-16.146zM986.281 615.625l27.966 16.146v32.291l-27.966 16.146-27.965-16.146v-32.291l27.965-16.146zM1018.57 561.458l27.965 16.146v32.292l-27.965 16.146-27.965-16.146v-32.292l27.965-16.146zM1083.16 561.458l27.966 16.146v32.292l-27.966 16.146-27.965-16.146v-32.292l27.965-16.146zM1050.87 615.625l27.965 16.146v32.291l-27.965 16.146-27.966-16.146v-32.291l27.966-16.146zM1115.45 615.625l27.965 16.146v32.291l-27.965 16.146-27.965-16.146v-32.291l27.965-16.146zM372.74 1103.12l27.965 16.146v32.291l-27.965 16.146-27.966-16.146v-32.291l27.966-16.146zM437.323 1103.12l27.965 16.146v32.291l-27.965 16.146-27.965-16.146v-32.291l27.965-16.146zM405.031 1157.29l27.966 16.145v32.292l-27.966 16.146-27.965-16.146v-32.292l27.965-16.145zM469.615 1157.29l27.965 16.145v32.292l-27.965 16.146-27.966-16.146v-32.292l27.966-16.145zM501.906 1103.12l27.966 16.146v32.291l-27.966 16.146-27.965-16.146v-32.291l27.965-16.146zM566.49 1103.12l27.965 16.146v32.291l-27.965 16.146-27.966-16.146v-32.291l27.966-16.146zM534.198 1157.29l27.965 16.145v32.292l-27.965 16.146-27.965-16.146v-32.292l27.965-16.145zM598.781 1157.29l27.966 16.145v32.292l-27.966 16.146-27.965-16.146v-32.292l27.965-16.145zM437.323 1211.46l27.965 16.146v32.292l-27.965 16.146-27.965-16.146v-32.292l27.965-16.146zM501.906 1211.46l27.966 16.146v32.292l-27.966 16.146-27.965-16.146v-32.292l27.965-16.146zM566.49 1211.46l27.965 16.146v32.292l-27.965 16.146-27.966-16.146v-32.292l27.966-16.146zM340.448 1048.96l27.965 16.146v32.292l-27.965 16.146-27.965-16.146v-32.292l27.965-16.146zM405.031 940.625l27.966 16.146v32.291l-27.966 16.146-27.965-16.146v-32.291l27.965-16.146zM469.615 940.625l27.965 16.146v32.291l-27.965 16.146-27.966-16.146v-32.291l27.966-16.146zM534.198 940.625l27.965 16.146v32.291l-27.965 16.146-27.965-16.146v-32.291l27.965-16.146zM598.781 940.625l27.966 16.146v32.291l-27.966 16.146-27.965-16.146v-32.291l27.965-16.146zM372.74 994.792l27.965 16.145v32.292l-27.965 16.146-27.966-16.146v-32.292l27.966-16.145zM437.323 994.792l27.965 16.145v32.292l-27.965 16.146-27.965-16.146v-32.292l27.965-16.145zM405.031 1048.96l27.966 16.146v32.292l-27.966 16.146-27.965-16.146v-32.292l27.965-16.146zM469.615 1048.96l27.965 16.146v32.292l-27.965 16.146-27.966-16.146v-32.292l27.966-16.146zM501.906 994.792l27.966 16.145v32.292l-27.966 16.146-27.965-16.146v-32.292l27.965-16.145zM566.49 994.792l27.965 16.145v32.292l-27.965 16.146-27.966-16.146v-32.292l27.966-16.145zM534.198 1048.96l27.965 16.146v32.292l-27.965 16.146-27.965-16.146v-32.292l27.965-16.146zM598.781 1048.96l27.966 16.146v32.292l-27.966 16.146-27.965-16.146v-32.292l27.965-16.146zM631.073 1103.12l27.965 16.146v32.291l-27.965 16.146-27.965-16.146v-32.291l27.965-16.146zM695.656 1103.12l27.966 16.146v32.291l-27.966 16.146-27.965-16.146v-32.291l27.965-16.146zM663.365 1157.29l27.965 16.145v32.292l-27.965 16.146-27.966-16.146v-32.292l27.966-16.145zM727.948 1157.29l27.965 16.145v32.292l-27.965 16.146-27.965-16.146v-32.292l27.965-16.145zM760.24 1103.12l27.965 16.146v32.291l-27.965 16.146-27.966-16.146v-32.291l27.966-16.146zM824.823 1103.12l27.965 16.146v32.291l-27.965 16.146-27.965-16.146v-32.291l27.965-16.146zM792.531 1157.29l27.966 16.145v32.292l-27.966 16.146-27.965-16.146v-32.292l27.965-16.145zM857.115 1157.29l27.965 16.145v32.292l-27.965 16.146-27.966-16.146v-32.292l27.966-16.145zM631.073 1211.46l27.965 16.146v32.292l-27.965 16.146-27.965-16.146v-32.292l27.965-16.146zM695.656 1211.46l27.966 16.146v32.292l-27.966 16.146-27.965-16.146v-32.292l27.965-16.146zM663.365 1265.62l27.965 16.146v32.291l-27.965 16.146-27.966-16.146v-32.291l27.966-16.146zM727.948 1265.62l27.965 16.146v32.291l-27.965 16.146-27.965-16.146v-32.291l27.965-16.146zM760.24 1211.46l27.965 16.146v32.292l-27.965 16.146-27.966-16.146v-32.292l27.966-16.146zM824.823 1211.46l27.965 16.146v32.292l-27.965 16.146-27.965-16.146v-32.292l27.965-16.146zM792.531 1265.62l27.966 16.146v32.291l-27.966 16.146-27.965-16.146v-32.291l27.965-16.146zM857.115 1265.62l27.965 16.146v32.291l-27.965 16.146-27.966-16.146v-32.291l27.966-16.146zM889.406 1103.12l27.966 16.146v32.291l-27.966 16.146-27.965-16.146v-32.291l27.965-16.146zM953.99 1103.12l27.965 16.146v32.291l-27.965 16.146-27.966-16.146v-32.291l27.966-16.146zM921.698 1157.29l27.965 16.145v32.292l-27.965 16.146-27.965-16.146v-32.292l27.965-16.145zM986.281 1157.29l27.966 16.145v32.292l-27.966 16.146-27.965-16.146v-32.292l27.965-16.145zM1018.57 1103.12l27.965 16.146v32.291l-27.965 16.146-27.965-16.146v-32.291l27.965-16.146zM1083.16 1103.12l27.966 16.146v32.291l-27.966 16.146-27.965-16.146v-32.291l27.965-16.146zM1050.87 1157.29l27.965 16.145v32.292l-27.965 16.146-27.966-16.146v-32.292l27.966-16.145zM1115.45 1157.29l27.965 16.145v32.292l-27.965 16.146-27.965-16.146v-32.292l27.965-16.145zM889.406 1211.46l27.966 16.146v32.292l-27.966 16.146-27.965-16.146v-32.292l27.965-16.146zM953.99 1211.46l27.965 16.146v32.292l-27.965 16.146-27.966-16.146v-32.292l27.966-16.146zM921.698 1265.62l27.965 16.146v32.291l-27.965 16.146-27.965-16.146v-32.291l27.965-16.146zM986.281 1265.62l27.966 16.146v32.291l-27.966 16.146-27.965-16.146v-32.291l27.965-16.146zM1018.57 1211.46l27.965 16.146v32.292l-27.965 16.146-27.965-16.146v-32.292l27.965-16.146zM1083.16 1211.46l27.966 16.146v32.292l-27.966 16.146-27.965-16.146v-32.292l27.965-16.146zM1050.87 1265.62l27.965 16.146v32.291l-27.965 16.146-27.966-16.146v-32.291l27.966-16.146zM1115.45 1265.62l27.965 16.146v32.291l-27.965 16.146-27.965-16.146v-32.291l27.965-16.146zM663.365 940.625l27.965 16.146v32.291l-27.965 16.146-27.966-16.146v-32.291l27.966-16.146zM727.948 940.625l27.965 16.146v32.291l-27.965 16.146-27.965-16.146v-32.291l27.965-16.146zM631.073 994.792l27.965 16.145v32.292l-27.965 16.146-27.965-16.146v-32.292l27.965-16.145zM695.656 994.792l27.966 16.145v32.292l-27.966 16.146-27.965-16.146v-32.292l27.965-16.145zM663.365 1048.96l27.965 16.146v32.292l-27.965 16.146-27.966-16.146v-32.292l27.966-16.146zM727.948 1048.96l27.965 16.146v32.292l-27.965 16.146-27.965-16.146v-32.292l27.965-16.146zM760.24 994.792l27.965 16.145v32.292l-27.965 16.146-27.966-16.146v-32.292l27.966-16.145zM824.823 994.792l27.965 16.145v32.292l-27.965 16.146-27.965-16.146v-32.292l27.965-16.145zM792.531 1048.96l27.966 16.146v32.292l-27.966 16.146-27.965-16.146v-32.292l27.965-16.146zM857.115 1048.96l27.965 16.146v32.292l-27.965 16.146-27.966-16.146v-32.292l27.966-16.146zM889.406 994.792l27.966 16.145v32.292l-27.966 16.146-27.965-16.146v-32.292l27.965-16.145zM921.698 1048.96l27.965 16.146v32.292l-27.965 16.146-27.965-16.146v-32.292l27.965-16.146zM986.281 1048.96l27.966 16.146v32.292l-27.966 16.146-27.965-16.146v-32.292l27.965-16.146zM340.448 398.958l27.965 16.146v32.292l-27.965 16.146-27.965-16.146v-32.292l27.965-16.146zM405.031 398.958l27.966 16.146v32.292l-27.966 16.146-27.965-16.146v-32.292l27.965-16.146zM469.615 398.958l27.965 16.146v32.292l-27.965 16.146-27.966-16.146v-32.292l27.966-16.146zM534.198 398.958l27.965 16.146v32.292l-27.965 16.146-27.965-16.146v-32.292l27.965-16.146zM598.781 398.958l27.966 16.146v32.292l-27.966 16.146-27.965-16.146v-32.292l27.965-16.146zM663.365 398.958l27.965 16.146v32.292l-27.965 16.146-27.966-16.146v-32.292l27.966-16.146zM727.948 398.958l27.965 16.146v32.292l-27.965 16.146-27.965-16.146v-32.292l27.965-16.146zM792.531 398.958l27.966 16.146v32.292l-27.966 16.146-27.965-16.146v-32.292l27.965-16.146zM857.115 398.958l27.965 16.146v32.292l-27.965 16.146-27.966-16.146v-32.292l27.966-16.146zM1148.8 669.792l27.965 16.145v32.292l-27.965 16.146-27.966-16.146v-32.292l27.966-16.145zM1213.38 669.792l27.965 16.145v32.292l-27.965 16.146-27.965-16.146v-32.292l27.965-16.145zM1181.09 723.958l27.966 16.146v32.292l-27.966 16.146-27.965-16.146v-32.292l27.965-16.146zM1245.67 723.958l27.965 16.146v32.292l-27.965 16.146-27.966-16.146v-32.292l27.966-16.146zM1277.96 669.792l27.966 16.145v32.292l-27.966 16.146-27.965-16.146v-32.292l27.965-16.145zM1342.55 669.792l27.965 16.145v32.292l-27.965 16.146-27.966-16.146v-32.292l27.966-16.145zM1310.26 723.958l27.965 16.146v32.292l-27.965 16.146-27.965-16.146v-32.292l27.965-16.146zM1374.84 723.958l27.966 16.146v32.292l-27.966 16.146-27.965-16.146v-32.292l27.965-16.146zM1148.8 778.125l27.965 16.146v32.291l-27.965 16.146-27.966-16.146v-32.291l27.966-16.146zM1213.38 778.125l27.965 16.146v32.291l-27.965 16.146-27.965-16.146v-32.291l27.965-16.146zM1181.09 832.292l27.966 16.145v32.292l-27.966 16.146-27.965-16.146v-32.292l27.965-16.145zM1245.67 832.292l27.965 16.145v32.292l-27.965 16.146-27.966-16.146v-32.292l27.966-16.145zM1277.96 778.125l27.966 16.146v32.291l-27.966 16.146-27.965-16.146v-32.291l27.965-16.146zM1342.55 778.125l27.965 16.146v32.291l-27.965 16.146-27.966-16.146v-32.291l27.966-16.146zM1310.26 832.292l27.965 16.145v32.292l-27.965 16.146-27.965-16.146v-32.292l27.965-16.145zM1374.84 832.292l27.966 16.145v32.292l-27.966 16.146-27.965-16.146v-32.292l27.965-16.145zM1407.13 669.792l27.965 16.145v32.292l-27.965 16.146-27.965-16.146v-32.292l27.965-16.145zM1439.42 723.958l27.965 16.146v32.292l-27.965 16.146-27.966-16.146v-32.292l27.966-16.146zM1504.01 723.958l27.965 16.146v32.292l-27.965 16.146-27.965-16.146v-32.292l27.965-16.146zM1407.13 778.125l27.965 16.146v32.291l-27.965 16.146-27.965-16.146v-32.291l27.965-16.146zM1471.71 778.125l27.966 16.146v32.291l-27.966 16.146-27.965-16.146v-32.291l27.965-16.146zM1439.42 832.292l27.965 16.145v32.292l-27.965 16.146-27.966-16.146v-32.292l27.966-16.145zM1504.01 832.292l27.965 16.145v32.292l-27.965 16.146-27.965-16.146v-32.292l27.965-16.145zM1536.3 778.125l27.965 16.146v32.291l-27.965 16.146-27.966-16.146v-32.291l27.966-16.146zM1568.59 832.292l27.966 16.145v32.292l-27.966 16.146-27.965-16.146v-32.292l27.965-16.145zM1181.09 507.292l27.966 16.145v32.292l-27.966 16.146-27.965-16.146v-32.292l27.965-16.145zM1148.8 561.458l27.965 16.146v32.292l-27.965 16.146-27.966-16.146v-32.292l27.966-16.146zM1213.38 561.458l27.965 16.146v32.292l-27.965 16.146-27.965-16.146v-32.292l27.965-16.146zM1181.09 615.625l27.966 16.146v32.291l-27.966 16.146-27.965-16.146v-32.291l27.965-16.146zM1245.67 615.625l27.965 16.146v32.291l-27.965 16.146-27.966-16.146v-32.291l27.966-16.146zM1310.26 615.625l27.965 16.146v32.291l-27.965 16.146-27.965-16.146v-32.291l27.965-16.146zM1148.8 1211.46l27.965 16.146v32.292l-27.965 16.146-27.966-16.146v-32.292l27.966-16.146zM1213.38 1211.46l27.965 16.146v32.292l-27.965 16.146-27.965-16.146v-32.292l27.965-16.146zM1181.09 1265.62l27.966 16.146v32.291l-27.966 16.146-27.965-16.146v-32.291l27.965-16.146zM1245.67 1265.62l27.965 16.146v32.291l-27.965 16.146-27.966-16.146v-32.291l27.966-16.146zM1407.13 1103.12l27.965 16.146v32.291l-27.965 16.146-27.965-16.146v-32.291l27.965-16.146zM1471.71 1103.12l27.966 16.146v32.291l-27.966 16.146-27.965-16.146v-32.291l27.965-16.146zM1439.42 1157.29l27.965 16.145v32.292l-27.965 16.146-27.966-16.146v-32.292l27.966-16.145zM1504.01 1157.29l27.965 16.145v32.292l-27.965 16.146-27.965-16.146v-32.292l27.965-16.145zM1536.3 1103.12l27.965 16.146v32.291l-27.965 16.146-27.966-16.146v-32.291l27.966-16.146zM1600.88 1103.12l27.965 16.146v32.291l-27.965 16.146-27.965-16.146v-32.291l27.965-16.146zM1568.59 1157.29l27.966 16.145v32.292l-27.966 16.146-27.965-16.146v-32.292l27.965-16.145zM1633.17 1157.29l27.965 16.145v32.292l-27.965 16.146-27.966-16.146v-32.292l27.966-16.145zM1536.3 1211.46l27.965 16.146v32.292l-27.965 16.146-27.966-16.146v-32.292l27.966-16.146zM1600.88 1211.46l27.965 16.146v32.292l-27.965 16.146-27.965-16.146v-32.292l27.965-16.146zM1568.59 1265.62l27.966 16.146v32.291l-27.966 16.146-27.965-16.146v-32.291l27.965-16.146zM1633.17 1265.62l27.965 16.146v32.291l-27.965 16.146-27.966-16.146v-32.291l27.966-16.146zM1148.8 886.458l27.965 16.146v32.292l-27.965 16.146-27.966-16.146v-32.292l27.966-16.146zM1213.38 886.458l27.965 16.146v32.292l-27.965 16.146-27.965-16.146v-32.292l27.965-16.146zM1245.67 940.625l27.965 16.146v32.291l-27.965 16.146-27.966-16.146v-32.291l27.966-16.146zM1277.96 886.458l27.966 16.146v32.292l-27.966 16.146-27.965-16.146v-32.292l27.965-16.146zM1342.55 886.458l27.965 16.146v32.292l-27.965 16.146-27.966-16.146v-32.292l27.966-16.146zM1310.26 940.625l27.965 16.146v32.291l-27.965 16.146-27.965-16.146v-32.291l27.965-16.146zM1374.84 940.625l27.966 16.146v32.291l-27.966 16.146-27.965-16.146v-32.291l27.965-16.146zM1277.96 994.792l27.966 16.145v32.292l-27.966 16.146-27.965-16.146v-32.292l27.965-16.145zM1342.55 994.792l27.965 16.145v32.292l-27.965 16.146-27.966-16.146v-32.292l27.966-16.145zM1374.84 1048.96l27.966 16.146v32.292l-27.966 16.146-27.965-16.146v-32.292l27.965-16.146zM1407.13 886.458l27.965 16.146v32.292l-27.965 16.146-27.965-16.146v-32.292l27.965-16.146zM1471.71 886.458l27.966 16.146v32.292l-27.966 16.146-27.965-16.146v-32.292l27.965-16.146zM1439.42 940.625l27.965 16.146v32.291l-27.965 16.146-27.966-16.146v-32.291l27.966-16.146zM1504.01 940.625l27.965 16.146v32.291l-27.965 16.146-27.965-16.146v-32.291l27.965-16.146zM1536.3 886.458l27.965 16.146v32.292l-27.965 16.146-27.966-16.146v-32.292l27.966-16.146zM1600.88 886.458l27.965 16.146v32.292l-27.965 16.146-27.965-16.146v-32.292l27.965-16.146zM1568.59 940.625l27.966 16.146v32.291l-27.966 16.146-27.965-16.146v-32.291l27.965-16.146zM1633.17 940.625l27.965 16.146v32.291l-27.965 16.146-27.966-16.146v-32.291l27.966-16.146zM1407.13 994.792l27.965 16.145v32.292l-27.965 16.146-27.965-16.146v-32.292l27.965-16.145zM1471.71 994.792l27.966 16.145v32.292l-27.966 16.146-27.965-16.146v-32.292l27.965-16.145zM1439.42 1048.96l27.965 16.146v32.292l-27.965 16.146-27.966-16.146v-32.292l27.966-16.146zM1504.01 1048.96l27.965 16.146v32.292l-27.965 16.146-27.965-16.146v-32.292l27.965-16.146zM1536.3 994.792l27.965 16.145v32.292l-27.965 16.146-27.966-16.146v-32.292l27.966-16.145zM1600.88 994.792l27.965 16.145v32.292l-27.965 16.146-27.965-16.146v-32.292l27.965-16.145zM1568.59 1048.96l27.966 16.146v32.292l-27.966 16.146-27.965-16.146v-32.292l27.965-16.146zM1633.17 1048.96l27.965 16.146v32.292l-27.965 16.146-27.966-16.146v-32.292l27.966-16.146zM1665.47 1103.12l27.966 16.146v32.291l-27.966 16.146-27.965-16.146v-32.291l27.965-16.146zM1730.05 1103.12l27.965 16.146v32.291l-27.965 16.146-27.966-16.146v-32.291l27.966-16.146zM1697.76 1157.29l27.965 16.145v32.292l-27.965 16.146-27.965-16.146v-32.292l27.965-16.145zM1762.34 1157.29l27.966 16.145v32.292l-27.966 16.146-27.965-16.146v-32.292l27.965-16.145zM1794.63 1103.12l27.965 16.146v32.291l-27.965 16.146-27.965-16.146v-32.291l27.965-16.146zM1826.92 1157.29l27.965 16.145v32.292l-27.965 16.146-27.966-16.146v-32.292l27.966-16.145zM1665.47 1211.46l27.966 16.146v32.292l-27.966 16.146-27.965-16.146v-32.292l27.965-16.146zM1730.05 1211.46l27.965 16.146v32.292l-27.965 16.146-27.966-16.146v-32.292l27.966-16.146zM1697.76 1265.62l27.965 16.146v32.291l-27.965 16.146-27.965-16.146v-32.291l27.965-16.146zM1762.34 1265.62l27.966 16.146v32.291l-27.966 16.146-27.965-16.146v-32.291l27.965-16.146zM1794.63 1211.46l27.965 16.146v32.292l-27.965 16.146-27.965-16.146v-32.292l27.965-16.146zM1859.22 1211.46l27.966 16.146v32.292l-27.966 16.146-27.965-16.146v-32.292l27.965-16.146zM1826.92 1265.62l27.965 16.146v32.291l-27.965 16.146-27.966-16.146v-32.291l27.966-16.146zM1891.51 1265.62l27.965 16.146v32.291l-27.965 16.146-27.965-16.146v-32.291l27.965-16.146zM1665.47 886.458l27.966 16.146v32.292l-27.966 16.146-27.965-16.146v-32.292l27.965-16.146zM1697.76 940.625l27.965 16.146v32.291l-27.965 16.146-27.965-16.146v-32.291l27.965-16.146zM1665.47 994.792l27.966 16.145v32.292l-27.966 16.146-27.965-16.146v-32.292l27.965-16.145zM1730.05 994.792l27.965 16.145v32.292l-27.965 16.146-27.966-16.146v-32.292l27.966-16.145zM1697.76 1048.96l27.965 16.146v32.292l-27.965 16.146-27.965-16.146v-32.292l27.965-16.146zM1762.34 1048.96l27.966 16.146v32.292l-27.966 16.146-27.965-16.146v-32.292l27.965-16.146zM469.615 1698.96l27.965 16.146v32.292l-27.965 16.146-27.966-16.146v-32.292l27.966-16.146zM501.906 1644.79l27.966 16.145v32.292l-27.966 16.146-27.965-16.146v-32.292l27.965-16.145zM566.49 1644.79l27.965 16.145v32.292l-27.965 16.146-27.966-16.146v-32.292l27.966-16.145zM534.198 1698.96l27.965 16.146v32.292l-27.965 16.146-27.965-16.146v-32.292l27.965-16.146zM598.781 1698.96l27.966 16.146v32.292l-27.966 16.146-27.965-16.146v-32.292l27.965-16.146zM501.906 1753.12l27.966 16.146v32.291l-27.966 16.146-27.965-16.146v-32.291l27.965-16.146zM566.49 1753.12l27.965 16.146v32.291l-27.965 16.146-27.966-16.146v-32.291l27.966-16.146zM534.198 1807.29l27.965 16.145v32.292l-27.965 16.146-27.965-16.146v-32.292l27.965-16.145zM598.781 1807.29l27.966 16.145v32.292l-27.966 16.146-27.965-16.146v-32.292l27.965-16.145zM631.073 1861.46l27.965 16.146v32.292l-27.965 16.146-27.965-16.146v-32.292l27.965-16.146zM695.656 1861.46l27.966 16.146v32.292l-27.966 16.146-27.965-16.146v-32.292l27.965-16.146zM631.073 1644.79l27.965 16.145v32.292l-27.965 16.146-27.965-16.146v-32.292l27.965-16.145zM695.656 1644.79l27.966 16.145v32.292l-27.966 16.146-27.965-16.146v-32.292l27.965-16.145zM663.365 1698.96l27.965 16.146v32.292l-27.965 16.146-27.966-16.146v-32.292l27.966-16.146zM727.948 1698.96l27.965 16.146v32.292l-27.965 16.146-27.965-16.146v-32.292l27.965-16.146zM760.24 1644.79l27.965 16.145v32.292l-27.965 16.146-27.966-16.146v-32.292l27.966-16.145zM824.823 1644.79l27.965 16.145v32.292l-27.965 16.146-27.965-16.146v-32.292l27.965-16.145zM792.531 1698.96l27.966 16.146v32.292l-27.966 16.146-27.965-16.146v-32.292l27.965-16.146zM631.073 1753.12l27.965 16.146v32.291l-27.965 16.146-27.965-16.146v-32.291l27.965-16.146zM695.656 1753.12l27.966 16.146v32.291l-27.966 16.146-27.965-16.146v-32.291l27.965-16.146zM663.365 1807.29l27.965 16.145v32.292l-27.965 16.146-27.966-16.146v-32.292l27.966-16.145zM727.948 1807.29l27.965 16.145v32.292l-27.965 16.146-27.965-16.146v-32.292l27.965-16.145zM760.24 1753.12l27.965 16.146v32.291l-27.965 16.146-27.966-16.146v-32.291l27.966-16.146zM792.531 1807.29l27.966 16.145v32.292l-27.966 16.146-27.965-16.146v-32.292l27.965-16.145zM566.49 1536.46l27.965 16.146v32.292l-27.965 16.146-27.966-16.146v-32.292l27.966-16.146zM534.198 1590.62l27.965 16.146v32.291l-27.965 16.146-27.965-16.146v-32.291l27.965-16.146zM598.781 1590.62l27.966 16.146v32.291l-27.966 16.146-27.965-16.146v-32.291l27.965-16.146zM631.073 1536.46l27.965 16.146v32.292l-27.965 16.146-27.965-16.146v-32.292l27.965-16.146zM695.656 1536.46l27.966 16.146v32.292l-27.966 16.146-27.965-16.146v-32.292l27.965-16.146zM663.365 1590.62l27.965 16.146v32.291l-27.965 16.146-27.966-16.146v-32.291l27.966-16.146zM727.948 1590.62l27.965 16.146v32.291l-27.965 16.146-27.965-16.146v-32.291l27.965-16.146zM792.531 1590.62l27.966 16.146v32.291l-27.966 16.146-27.965-16.146v-32.291l27.965-16.146zM1018.57 1428.12l27.965 16.146v32.291l-27.965 16.146-27.965-16.146v-32.291l27.965-16.146zM1083.16 1428.12l27.966 16.146v32.291l-27.966 16.146-27.965-16.146v-32.291l27.965-16.146zM1050.87 1482.29l27.965 16.145v32.292l-27.965 16.146-27.966-16.146v-32.292l27.966-16.145zM1115.45 1482.29l27.965 16.145v32.292l-27.965 16.146-27.965-16.146v-32.292l27.965-16.145zM1083.16 1536.46l27.966 16.146v32.292l-27.966 16.146-27.965-16.146v-32.292l27.965-16.146zM1115.45 1590.62l27.965 16.146v32.291l-27.965 16.146-27.965-16.146v-32.291l27.965-16.146zM824.823 1319.79l27.965 16.145v32.292l-27.965 16.146-27.965-16.146v-32.292l27.965-16.145zM889.406 1319.79l27.966 16.145v32.292l-27.966 16.146-27.965-16.146v-32.292l27.965-16.145zM953.99 1319.79l27.965 16.145v32.292l-27.965 16.146-27.966-16.146v-32.292l27.966-16.145zM921.698 1373.96l27.965 16.146v32.292l-27.965 16.146-27.965-16.146v-32.292l27.965-16.146zM986.281 1373.96l27.966 16.146v32.292l-27.966 16.146-27.965-16.146v-32.292l27.965-16.146zM1018.57 1319.79l27.965 16.145v32.292l-27.965 16.146-27.965-16.146v-32.292l27.965-16.145zM1083.16 1319.79l27.966 16.145v32.292l-27.966 16.146-27.965-16.146v-32.292l27.965-16.145zM1050.87 1373.96l27.965 16.146v32.292l-27.965 16.146-27.966-16.146v-32.292l27.966-16.146zM1115.45 1373.96l27.965 16.146v32.292l-27.965 16.146-27.965-16.146v-32.292l27.965-16.146zM1148.8 1644.79l27.965 16.145v32.292l-27.965 16.146-27.966-16.146v-32.292l27.966-16.145zM1213.38 1644.79l27.965 16.145v32.292l-27.965 16.146-27.965-16.146v-32.292l27.965-16.145zM1181.09 1698.96l27.966 16.146v32.292l-27.966 16.146-27.965-16.146v-32.292l27.965-16.146zM1245.67 1698.96l27.965 16.146v32.292l-27.965 16.146-27.966-16.146v-32.292l27.966-16.146zM1277.96 1644.79l27.966 16.145v32.292l-27.966 16.146-27.965-16.146v-32.292l27.965-16.145zM1342.55 1644.79l27.965 16.145v32.292l-27.965 16.146-27.966-16.146v-32.292l27.966-16.145zM1310.26 1698.96l27.965 16.146v32.292l-27.965 16.146-27.965-16.146v-32.292l27.965-16.146zM1374.84 1698.96l27.966 16.146v32.292l-27.966 16.146-27.965-16.146v-32.292l27.965-16.146zM1213.38 1753.12l27.965 16.146v32.291l-27.965 16.146-27.965-16.146v-32.291l27.965-16.146zM1245.67 1807.29l27.965 16.145v32.292l-27.965 16.146-27.966-16.146v-32.292l27.966-16.145zM1277.96 1753.12l27.966 16.146v32.291l-27.966 16.146-27.965-16.146v-32.291l27.965-16.146zM1342.55 1753.12l27.965 16.146v32.291l-27.965 16.146-27.966-16.146v-32.291l27.966-16.146zM1310.26 1807.29l27.965 16.145v32.292l-27.965 16.146-27.965-16.146v-32.292l27.965-16.145zM1407.13 1644.79l27.965 16.145v32.292l-27.965 16.146-27.965-16.146v-32.292l27.965-16.145zM1439.42 1698.96l27.965 16.146v32.292l-27.965 16.146-27.966-16.146v-32.292l27.966-16.146zM1407.13 1753.12l27.965 16.146v32.291l-27.965 16.146-27.965-16.146v-32.291l27.965-16.146zM1730.05 1644.79l27.965 16.145v32.292l-27.965 16.146-27.966-16.146v-32.292l27.966-16.145zM1762.34 1698.96l27.966 16.146v32.292l-27.966 16.146-27.965-16.146v-32.292l27.965-16.146zM1794.63 1644.79l27.965 16.145v32.292l-27.965 16.146-27.965-16.146v-32.292l27.965-16.145zM1859.22 1644.79l27.966 16.145v32.292l-27.966 16.146-27.965-16.146v-32.292l27.965-16.145zM1826.92 1698.96l27.965 16.146v32.292l-27.965 16.146-27.966-16.146v-32.292l27.966-16.146zM1891.51 1698.96l27.965 16.146v32.292l-27.965 16.146-27.965-16.146v-32.292l27.965-16.146zM1923.8 1644.79l27.965 16.145v32.292l-27.965 16.146-27.966-16.146v-32.292l27.966-16.145zM1148.8 1428.12l27.965 16.146v32.291l-27.965 16.146-27.966-16.146v-32.291l27.966-16.146zM1213.38 1428.12l27.965 16.146v32.291l-27.965 16.146-27.965-16.146v-32.291l27.965-16.146zM1181.09 1482.29l27.966 16.145v32.292l-27.966 16.146-27.965-16.146v-32.292l27.965-16.145zM1245.67 1482.29l27.965 16.145v32.292l-27.965 16.146-27.966-16.146v-32.292l27.966-16.145zM1277.96 1428.12l27.966 16.146v32.291l-27.966 16.146-27.965-16.146v-32.291l27.965-16.146zM1342.55 1428.12l27.965 16.146v32.291l-27.965 16.146-27.966-16.146v-32.291l27.966-16.146zM1310.26 1482.29l27.965 16.145v32.292l-27.965 16.146-27.965-16.146v-32.292l27.965-16.145zM1374.84 1482.29l27.966 16.145v32.292l-27.966 16.146-27.965-16.146v-32.292l27.965-16.145zM1148.8 1536.46l27.965 16.146v32.292l-27.965 16.146-27.966-16.146v-32.292l27.966-16.146zM1213.38 1536.46l27.965 16.146v32.292l-27.965 16.146-27.965-16.146v-32.292l27.965-16.146zM1181.09 1590.62l27.966 16.146v32.291l-27.966 16.146-27.965-16.146v-32.291l27.965-16.146zM1245.67 1590.62l27.965 16.146v32.291l-27.965 16.146-27.966-16.146v-32.291l27.966-16.146zM1277.96 1536.46l27.966 16.146v32.292l-27.966 16.146-27.965-16.146v-32.292l27.965-16.146zM1342.55 1536.46l27.965 16.146v32.292l-27.965 16.146-27.966-16.146v-32.292l27.966-16.146zM1310.26 1590.62l27.965 16.146v32.291l-27.965 16.146-27.965-16.146v-32.291l27.965-16.146zM1374.84 1590.62l27.966 16.146v32.291l-27.966 16.146-27.965-16.146v-32.291l27.965-16.146zM1600.88 1428.12l27.965 16.146v32.291l-27.965 16.146-27.965-16.146v-32.291l27.965-16.146zM1633.17 1482.29l27.965 16.145v32.292l-27.965 16.146-27.966-16.146v-32.292l27.966-16.145zM1407.13 1536.46l27.965 16.146v32.292l-27.965 16.146-27.965-16.146v-32.292l27.965-16.146zM1439.42 1590.62l27.965 16.146v32.291l-27.965 16.146-27.966-16.146v-32.291l27.966-16.146zM1148.8 1319.79l27.965 16.145v32.292l-27.965 16.146-27.966-16.146v-32.292l27.966-16.145zM1213.38 1319.79l27.965 16.145v32.292l-27.965 16.146-27.965-16.146v-32.292l27.965-16.145zM1181.09 1373.96l27.966 16.146v32.292l-27.966 16.146-27.965-16.146v-32.292l27.965-16.146zM1245.67 1373.96l27.965 16.146v32.292l-27.965 16.146-27.966-16.146v-32.292l27.966-16.146zM1277.96 1319.79l27.966 16.145v32.292l-27.966 16.146-27.965-16.146v-32.292l27.965-16.145zM1310.26 1373.96l27.965 16.146v32.292l-27.965 16.146-27.965-16.146v-32.292l27.965-16.146zM1600.88 1319.79l27.965 16.145v32.292l-27.965 16.146-27.965-16.146v-32.292l27.965-16.145zM1633.17 1373.96l27.965 16.146v32.292l-27.965 16.146-27.966-16.146v-32.292l27.966-16.146zM1665.47 1428.12l27.966 16.146v32.291l-27.966 16.146-27.965-16.146v-32.291l27.965-16.146zM1730.05 1428.12l27.965 16.146v32.291l-27.965 16.146-27.966-16.146v-32.291l27.966-16.146zM1697.76 1482.29l27.965 16.145v32.292l-27.965 16.146-27.965-16.146v-32.292l27.965-16.145zM1762.34 1482.29l27.966 16.145v32.292l-27.966 16.146-27.965-16.146v-32.292l27.965-16.145zM1794.63 1428.12l27.965 16.146v32.291l-27.965 16.146-27.965-16.146v-32.291l27.965-16.146zM1859.22 1428.12l27.966 16.146v32.291l-27.966 16.146-27.965-16.146v-32.291l27.965-16.146zM1826.92 1482.29l27.965 16.145v32.292l-27.965 16.146-27.966-16.146v-32.292l27.966-16.145zM1891.51 1482.29l27.965 16.145v32.292l-27.965 16.146-27.965-16.146v-32.292l27.965-16.145zM1665.47 1536.46l27.966 16.146v32.292l-27.966 16.146-27.965-16.146v-32.292l27.965-16.146zM1730.05 1536.46l27.965 16.146v32.292l-27.965 16.146-27.966-16.146v-32.292l27.966-16.146zM1697.76 1590.62l27.965 16.146v32.291l-27.965 16.146-27.965-16.146v-32.291l27.965-16.146zM1762.34 1590.62l27.966 16.146v32.291l-27.966 16.146-27.965-16.146v-32.291l27.965-16.146zM1794.63 1536.46l27.965 16.146v32.292l-27.965 16.146-27.965-16.146v-32.292l27.965-16.146zM1859.22 1536.46l27.966 16.146v32.292l-27.966 16.146-27.965-16.146v-32.292l27.965-16.146zM1826.92 1590.62l27.965 16.146v32.291l-27.965 16.146-27.966-16.146v-32.291l27.966-16.146zM1891.51 1590.62l27.965 16.146v32.291l-27.965 16.146-27.965-16.146v-32.291l27.965-16.146zM1923.8 1428.12l27.965 16.146v32.291l-27.965 16.146-27.966-16.146v-32.291l27.966-16.146zM1956.09 1482.29l27.966 16.145v32.292l-27.966 16.146-27.965-16.146v-32.292l27.965-16.145zM1923.8 1536.46l27.965 16.146v32.292l-27.965 16.146-27.966-16.146v-32.292l27.966-16.146zM1988.38 1536.46l27.965 16.146v32.292l-27.965 16.146-27.965-16.146v-32.292l27.965-16.146zM1956.09 1590.62l27.966 16.146v32.291l-27.966 16.146-27.965-16.146v-32.291l27.965-16.146zM1665.47 1319.79l27.966 16.145v32.292l-27.966 16.146-27.965-16.146v-32.292l27.965-16.145zM1730.05 1319.79l27.965 16.145v32.292l-27.965 16.146-27.966-16.146v-32.292l27.966-16.145zM1697.76 1373.96l27.965 16.146v32.292l-27.965 16.146-27.965-16.146v-32.292l27.965-16.146zM1762.34 1373.96l27.966 16.146v32.292l-27.966 16.146-27.965-16.146v-32.292l27.965-16.146zM1794.63 1319.79l27.965 16.145v32.292l-27.965 16.146-27.965-16.146v-32.292l27.965-16.145zM1859.22 1319.79l27.966 16.145v32.292l-27.966 16.146-27.965-16.146v-32.292l27.965-16.145zM1826.92 1373.96l27.965 16.146v32.292l-27.965 16.146-27.966-16.146v-32.292l27.966-16.146zM1891.51 1373.96l27.965 16.146v32.292l-27.965 16.146-27.965-16.146v-32.292l27.965-16.146zM1923.8 1319.79l27.965 16.145v32.292l-27.965 16.146-27.966-16.146v-32.292l27.966-16.145zM1956.09 1373.96l27.966 16.146v32.292l-27.966 16.146-27.965-16.146v-32.292l27.965-16.146z"/><path d="M469.615 1698.96l27.965 16.146v32.292l-27.965 16.146-27.966-16.146v-32.292l27.966-16.146zM501.906 1644.79l27.966 16.145v32.292l-27.966 16.146-27.965-16.146v-32.292l27.965-16.145zM566.49 1644.79l27.965 16.145v32.292l-27.965 16.146-27.966-16.146v-32.292l27.966-16.145zM534.198 1698.96l27.965 16.146v32.292l-27.965 16.146-27.965-16.146v-32.292l27.965-16.146zM598.781 1698.96l27.966 16.146v32.292l-27.966 16.146-27.965-16.146v-32.292l27.965-16.146zM501.906 1753.12l27.966 16.146v32.291l-27.966 16.146-27.965-16.146v-32.291l27.965-16.146zM566.49 1753.12l27.965 16.146v32.291l-27.965 16.146-27.966-16.146v-32.291l27.966-16.146zM534.198 1807.29l27.965 16.145v32.292l-27.965 16.146-27.965-16.146v-32.292l27.965-16.145zM598.781 1807.29l27.966 16.145v32.292l-27.966 16.146-27.965-16.146v-32.292l27.965-16.145zM631.073 1861.46l27.965 16.146v32.292l-27.965 16.146-27.965-16.146v-32.292l27.965-16.146zM566.49 1861.46l27.965 16.146v32.292l-27.965 16.146-27.966-16.146v-32.292l27.966-16.146zM695.656 1861.46l27.966 16.146v32.292l-27.966 16.146-27.965-16.146v-32.292l27.965-16.146zM631.073 1644.79l27.965 16.145v32.292l-27.965 16.146-27.965-16.146v-32.292l27.965-16.145zM695.656 1644.79l27.966 16.145v32.292l-27.966 16.146-27.965-16.146v-32.292l27.965-16.145zM663.365 1698.96l27.965 16.146v32.292l-27.965 16.146-27.966-16.146v-32.292l27.966-16.146zM727.948 1698.96l27.965 16.146v32.292l-27.965 16.146-27.965-16.146v-32.292l27.965-16.146zM760.24 1644.79l27.965 16.145v32.292l-27.965 16.146-27.966-16.146v-32.292l27.966-16.145zM824.823 1644.79l27.965 16.145v32.292l-27.965 16.146-27.965-16.146v-32.292l27.965-16.145zM824.823 1753.12l27.965 16.146v32.291l-27.965 16.146-27.965-16.146v-32.291l27.965-16.146zM792.531 1698.96l27.966 16.146v32.292l-27.966 16.146-27.965-16.146v-32.292l27.965-16.146zM631.073 1753.12l27.965 16.146v32.291l-27.965 16.146-27.965-16.146v-32.291l27.965-16.146zM695.656 1753.12l27.966 16.146v32.291l-27.966 16.146-27.965-16.146v-32.291l27.965-16.146zM663.365 1807.29l27.965 16.145v32.292l-27.965 16.146-27.966-16.146v-32.292l27.966-16.145zM727.948 1807.29l27.965 16.145v32.292l-27.965 16.146-27.965-16.146v-32.292l27.965-16.145zM760.24 1753.12l27.965 16.146v32.291l-27.965 16.146-27.966-16.146v-32.291l27.966-16.146zM792.531 1807.29l27.966 16.145v32.292l-27.966 16.146-27.965-16.146v-32.292l27.965-16.145zM566.49 1536.46l27.965 16.146v32.292l-27.965 16.146-27.966-16.146v-32.292l27.966-16.146zM534.198 1590.62l27.965 16.146v32.291l-27.965 16.146-27.965-16.146v-32.291l27.965-16.146zM598.781 1590.62l27.966 16.146v32.291l-27.966 16.146-27.965-16.146v-32.291l27.965-16.146zM631.073 1536.46l27.965 16.146v32.292l-27.965 16.146-27.965-16.146v-32.292l27.965-16.146zM695.656 1536.46l27.966 16.146v32.292l-27.966 16.146-27.965-16.146v-32.292l27.965-16.146zM663.365 1590.62l27.965 16.146v32.291l-27.965 16.146-27.966-16.146v-32.291l27.966-16.146zM727.948 1590.62l27.965 16.146v32.291l-27.965 16.146-27.965-16.146v-32.291l27.965-16.146zM792.531 1590.62l27.966 16.146v32.291l-27.966 16.146-27.965-16.146v-32.291l27.965-16.146zM953.99 1428.12l27.965 16.146v32.291l-27.965 16.146-27.966-16.146v-32.291l27.966-16.146zM1018.57 1428.12l27.965 16.146v32.291l-27.965 16.146-27.965-16.146v-32.291l27.965-16.146zM1083.16 1428.12l27.966 16.146v32.291l-27.966 16.146-27.965-16.146v-32.291l27.965-16.146zM1050.87 1482.29l27.965 16.145v32.292l-27.965 16.146-27.966-16.146v-32.292l27.966-16.145zM1115.45 1482.29l27.965 16.145v32.292l-27.965 16.146-27.965-16.146v-32.292l27.965-16.145zM1083.16 1536.46l27.966 16.146v32.292l-27.966 16.146-27.965-16.146v-32.292l27.965-16.146zM1115.45 1590.62l27.965 16.146v32.291l-27.965 16.146-27.965-16.146v-32.291l27.965-16.146zM889.406 1319.79l27.966 16.145v32.292l-27.966 16.146-27.965-16.146v-32.292l27.965-16.145zM953.99 1319.79l27.965 16.145v32.292l-27.965 16.146-27.966-16.146v-32.292l27.966-16.145zM921.698 1373.96l27.965 16.146v32.292l-27.965 16.146-27.965-16.146v-32.292l27.965-16.146zM986.281 1373.96l27.966 16.146v32.292l-27.966 16.146-27.965-16.146v-32.292l27.965-16.146zM1018.57 1319.79l27.965 16.145v32.292l-27.965 16.146-27.965-16.146v-32.292l27.965-16.145zM1083.16 1319.79l27.966 16.145v32.292l-27.966 16.146-27.965-16.146v-32.292l27.965-16.145zM1050.87 1373.96l27.965 16.146v32.292l-27.965 16.146-27.966-16.146v-32.292l27.966-16.146zM1115.45 1373.96l27.965 16.146v32.292l-27.965 16.146-27.965-16.146v-32.292l27.965-16.146zM1148.8 1644.79l27.965 16.145v32.292l-27.965 16.146-27.966-16.146v-32.292l27.966-16.145zM1213.38 1644.79l27.965 16.145v32.292l-27.965 16.146-27.965-16.146v-32.292l27.965-16.145zM1181.09 1698.96l27.966 16.146v32.292l-27.966 16.146-27.965-16.146v-32.292l27.965-16.146zM1245.67 1698.96l27.965 16.146v32.292l-27.965 16.146-27.966-16.146v-32.292l27.966-16.146zM1277.96 1644.79l27.966 16.145v32.292l-27.966 16.146-27.965-16.146v-32.292l27.965-16.145zM1342.55 1644.79l27.965 16.145v32.292l-27.965 16.146-27.966-16.146v-32.292l27.966-16.145zM1310.26 1698.96l27.965 16.146v32.292l-27.965 16.146-27.965-16.146v-32.292l27.965-16.146zM1374.84 1698.96l27.966 16.146v32.292l-27.966 16.146-27.965-16.146v-32.292l27.965-16.146zM1213.38 1753.12l27.965 16.146v32.291l-27.965 16.146-27.965-16.146v-32.291l27.965-16.146zM1245.67 1807.29l27.965 16.145v32.292l-27.965 16.146-27.966-16.146v-32.292l27.966-16.145zM1277.96 1753.12l27.966 16.146v32.291l-27.966 16.146-27.965-16.146v-32.291l27.965-16.146zM1342.55 1753.12l27.965 16.146v32.291l-27.965 16.146-27.966-16.146v-32.291l27.966-16.146zM1310.26 1807.29l27.965 16.145v32.292l-27.965 16.146-27.965-16.146v-32.292l27.965-16.145zM1407.13 1644.79l27.965 16.145v32.292l-27.965 16.146-27.965-16.146v-32.292l27.965-16.145zM1439.42 1698.96l27.965 16.146v32.292l-27.965 16.146-27.966-16.146v-32.292l27.966-16.146zM1407.13 1753.12l27.965 16.146v32.291l-27.965 16.146-27.965-16.146v-32.291l27.965-16.146zM1730.05 1644.79l27.965 16.145v32.292l-27.965 16.146-27.966-16.146v-32.292l27.966-16.145zM1762.34 1698.96l27.966 16.146v32.292l-27.966 16.146-27.965-16.146v-32.292l27.965-16.146zM1794.63 1644.79l27.965 16.145v32.292l-27.965 16.146-27.965-16.146v-32.292l27.965-16.145zM1859.22 1644.79l27.966 16.145v32.292l-27.966 16.146-27.965-16.146v-32.292l27.965-16.145zM1826.92 1698.96l27.965 16.146v32.292l-27.965 16.146-27.966-16.146v-32.292l27.966-16.146zM1891.51 1698.96l27.965 16.146v32.292l-27.965 16.146-27.965-16.146v-32.292l27.965-16.146zM1923.8 1644.79l27.965 16.145v32.292l-27.965 16.146-27.966-16.146v-32.292l27.966-16.145zM1148.8 1428.12l27.965 16.146v32.291l-27.965 16.146-27.966-16.146v-32.291l27.966-16.146zM1213.38 1428.12l27.965 16.146v32.291l-27.965 16.146-27.965-16.146v-32.291l27.965-16.146zM1181.09 1482.29l27.966 16.145v32.292l-27.966 16.146-27.965-16.146v-32.292l27.965-16.145zM1245.67 1482.29l27.965 16.145v32.292l-27.965 16.146-27.966-16.146v-32.292l27.966-16.145zM1277.96 1428.12l27.966 16.146v32.291l-27.966 16.146-27.965-16.146v-32.291l27.965-16.146zM1342.55 1428.12l27.965 16.146v32.291l-27.965 16.146-27.966-16.146v-32.291l27.966-16.146zM1310.26 1482.29l27.965 16.145v32.292l-27.965 16.146-27.965-16.146v-32.292l27.965-16.145zM1374.84 1482.29l27.966 16.145v32.292l-27.966 16.146-27.965-16.146v-32.292l27.965-16.145zM1148.8 1536.46l27.965 16.146v32.292l-27.965 16.146-27.966-16.146v-32.292l27.966-16.146zM1213.38 1536.46l27.965 16.146v32.292l-27.965 16.146-27.965-16.146v-32.292l27.965-16.146zM1181.09 1590.62l27.966 16.146v32.291l-27.966 16.146-27.965-16.146v-32.291l27.965-16.146zM1245.67 1590.62l27.965 16.146v32.291l-27.965 16.146-27.966-16.146v-32.291l27.966-16.146zM1277.96 1536.46l27.966 16.146v32.292l-27.966 16.146-27.965-16.146v-32.292l27.965-16.146zM1342.55 1536.46l27.965 16.146v32.292l-27.965 16.146-27.966-16.146v-32.292l27.966-16.146zM1310.26 1590.62l27.965 16.146v32.291l-27.965 16.146-27.965-16.146v-32.291l27.965-16.146zM1374.84 1590.62l27.966 16.146v32.291l-27.966 16.146-27.965-16.146v-32.291l27.965-16.146zM1633.17 1482.29l27.965 16.145v32.292l-27.965 16.146-27.966-16.146v-32.292l27.966-16.145zM1407.13 1536.46l27.965 16.146v32.292l-27.965 16.146-27.965-16.146v-32.292l27.965-16.146zM1439.42 1590.62l27.965 16.146v32.291l-27.965 16.146-27.966-16.146v-32.291l27.966-16.146zM1148.8 1319.79l27.965 16.145v32.292l-27.965 16.146-27.966-16.146v-32.292l27.966-16.145zM1213.38 1319.79l27.965 16.145v32.292l-27.965 16.146-27.965-16.146v-32.292l27.965-16.145zM1181.09 1373.96l27.966 16.146v32.292l-27.966 16.146-27.965-16.146v-32.292l27.965-16.146zM1245.67 1373.96l27.965 16.146v32.292l-27.965 16.146-27.966-16.146v-32.292l27.966-16.146zM1277.96 1319.79l27.966 16.145v32.292l-27.966 16.146-27.965-16.146v-32.292l27.965-16.145zM1310.26 1373.96l27.965 16.146v32.292l-27.965 16.146-27.965-16.146v-32.292l27.965-16.146zM1600.88 1319.79l27.965 16.145v32.292l-27.965 16.146-27.965-16.146v-32.292l27.965-16.145zM1633.17 1373.96l27.965 16.146v32.292l-27.965 16.146-27.966-16.146v-32.292l27.966-16.146zM1665.47 1428.12l27.966 16.146v32.291l-27.966 16.146-27.965-16.146v-32.291l27.965-16.146zM1730.05 1428.12l27.965 16.146v32.291l-27.965 16.146-27.966-16.146v-32.291l27.966-16.146zM1697.76 1482.29l27.965 16.145v32.292l-27.965 16.146-27.965-16.146v-32.292l27.965-16.145zM1762.34 1482.29l27.966 16.145v32.292l-27.966 16.146-27.965-16.146v-32.292l27.965-16.145zM1794.63 1428.12l27.965 16.146v32.291l-27.965 16.146-27.965-16.146v-32.291l27.965-16.146zM1859.22 1428.12l27.966 16.146v32.291l-27.966 16.146-27.965-16.146v-32.291l27.965-16.146zM1826.92 1482.29l27.965 16.145v32.292l-27.965 16.146-27.966-16.146v-32.292l27.966-16.145zM1891.51 1482.29l27.965 16.145v32.292l-27.965 16.146-27.965-16.146v-32.292l27.965-16.145zM1665.47 1536.46l27.966 16.146v32.292l-27.966 16.146-27.965-16.146v-32.292l27.965-16.146zM1730.05 1536.46l27.965 16.146v32.292l-27.965 16.146-27.966-16.146v-32.292l27.966-16.146zM1697.76 1590.62l27.965 16.146v32.291l-27.965 16.146-27.965-16.146v-32.291l27.965-16.146zM1762.34 1590.62l27.966 16.146v32.291l-27.966 16.146-27.965-16.146v-32.291l27.965-16.146zM1794.63 1536.46l27.965 16.146v32.292l-27.965 16.146-27.965-16.146v-32.292l27.965-16.146zM1859.22 1536.46l27.966 16.146v32.292l-27.966 16.146-27.965-16.146v-32.292l27.965-16.146zM1826.92 1590.62l27.965 16.146v32.291l-27.965 16.146-27.966-16.146v-32.291l27.966-16.146zM1891.51 1590.62l27.965 16.146v32.291l-27.965 16.146-27.965-16.146v-32.291l27.965-16.146zM1923.8 1428.12l27.965 16.146v32.291l-27.965 16.146-27.966-16.146v-32.291l27.966-16.146zM1956.09 1482.29l27.966 16.145v32.292l-27.966 16.146-27.965-16.146v-32.292l27.965-16.145zM1923.8 1536.46l27.965 16.146v32.292l-27.965 16.146-27.966-16.146v-32.292l27.966-16.146zM1988.38 1536.46l27.965 16.146v32.292l-27.965 16.146-27.965-16.146v-32.292l27.965-16.146zM1956.09 1590.62l27.966 16.146v32.291l-27.966 16.146-27.965-16.146v-32.291l27.965-16.146zM1665.47 1319.79l27.966 16.145v32.292l-27.966 16.146-27.965-16.146v-32.292l27.965-16.145zM1730.05 1319.79l27.965 16.145v32.292l-27.965 16.146-27.966-16.146v-32.292l27.966-16.145zM1697.76 1373.96l27.965 16.146v32.292l-27.965 16.146-27.965-16.146v-32.292l27.965-16.146zM1762.34 1373.96l27.966 16.146v32.292l-27.966 16.146-27.965-16.146v-32.292l27.965-16.146zM1794.63 1319.79l27.965 16.145v32.292l-27.965 16.146-27.965-16.146v-32.292l27.965-16.145zM1859.22 1319.79l27.966 16.145v32.292l-27.966 16.146-27.965-16.146v-32.292l27.965-16.145zM1826.92 1373.96l27.965 16.146v32.292l-27.965 16.146-27.966-16.146v-32.292l27.966-16.146zM1891.51 1373.96l27.965 16.146v32.292l-27.965 16.146-27.965-16.146v-32.292l27.965-16.146zM1923.8 1319.79l27.965 16.145v32.292l-27.965 16.146-27.966-16.146v-32.292l27.966-16.145zM1956.09 1373.96l27.966 16.146v32.292l-27.966 16.146-27.965-16.146v-32.292l27.965-16.146z"/></g><g fill="#0048a6"><circle cx="211.281" cy="539.583" r="6.25"/><circle cx="243.573" cy="593.75" r="6.25"/><circle cx="178.99" cy="593.75" r="6.25"/><circle cx="146.698" cy="539.583" r="6.25"/><circle cx="211.281" cy="647.917" r="6.25"/><circle cx="243.573" cy="702.083" r="6.25"/><circle cx="178.99" cy="702.083" r="6.25"/><circle cx="146.698" cy="647.917" r="6.25"/><circle cx="405.031" cy="756.25" r="6.25"/><circle cx="469.615" cy="756.25" r="6.25"/><circle cx="437.323" cy="810.417" r="6.25"/><circle cx="308.156" cy="810.417" r="6.25"/><circle cx="372.74" cy="810.417" r="6.25"/><circle cx="340.448" cy="756.25" r="6.25"/><circle cx="211.281" cy="756.25" r="6.25"/><circle cx="275.865" cy="756.25" r="6.25"/><circle cx="243.573" cy="810.417" r="6.25"/><circle cx="178.99" cy="810.417" r="6.25"/><circle cx="146.698" cy="756.25" r="6.25"/><circle cx="405.031" cy="864.583" r="6.25"/><circle cx="469.615" cy="864.583" r="6.25"/><circle cx="437.323" cy="918.75" r="6.25"/><circle cx="308.156" cy="918.75" r="6.25"/><circle cx="372.74" cy="918.75" r="6.25"/><circle cx="340.448" cy="864.583" r="6.25"/><circle cx="211.281" cy="864.583" r="6.25"/><circle cx="275.865" cy="864.583" r="6.25"/><circle cx="243.573" cy="918.75" r="6.25"/><circle cx="178.99" cy="918.75" r="6.25"/><circle cx="824.823" cy="810.417" r="6.25"/><circle cx="695.656" cy="810.417" r="6.25"/><circle cx="760.24" cy="810.417" r="6.25"/><circle cx="598.781" cy="756.25" r="6.25"/><circle cx="663.365" cy="756.25" r="6.25"/><circle cx="631.073" cy="810.417" r="6.25"/><circle cx="501.906" cy="810.417" r="6.25"/><circle cx="566.49" cy="810.417" r="6.25"/><circle cx="534.198" cy="756.25" r="6.25"/><circle cx="792.531" cy="864.583" r="6.25"/><circle cx="857.115" cy="864.583" r="6.25"/><circle cx="824.823" cy="918.75" r="6.25"/><circle cx="695.656" cy="918.75" r="6.25"/><circle cx="760.24" cy="918.75" r="6.25"/><circle cx="727.948" cy="864.583" r="6.25"/><circle cx="598.781" cy="864.583" r="6.25"/><circle cx="663.365" cy="864.583" r="6.25"/><circle cx="631.073" cy="918.75" r="6.25"/><circle cx="501.906" cy="918.75" r="6.25"/><circle cx="566.49" cy="918.75" r="6.25"/><circle cx="534.198" cy="864.583" r="6.25"/><circle cx="437.323" cy="160.417" r="6.25"/><circle cx="405.031" cy="214.583" r="6.25"/><circle cx="469.615" cy="214.583" r="6.25"/><circle cx="437.323" cy="268.75" r="6.25"/><circle cx="308.156" cy="268.75" r="6.25"/><circle cx="372.74" cy="268.75" r="6.25"/><circle cx="340.448" cy="214.583" r="6.25"/><circle cx="405.031" cy="322.917" r="6.25"/><circle cx="469.615" cy="322.917" r="6.25"/><circle cx="437.323" cy="377.083" r="6.25"/><circle cx="308.156" cy="377.083" r="6.25"/><circle cx="372.74" cy="377.083" r="6.25"/><circle cx="340.448" cy="322.917" r="6.25"/><circle cx="275.865" cy="322.917" r="6.25"/><circle cx="243.573" cy="377.083" r="6.25"/><circle cx="211.281" cy="431.25" r="6.25"/><circle cx="275.865" cy="431.25" r="6.25"/><circle cx="243.573" cy="485.417" r="6.25"/><circle cx="178.99" cy="485.417" r="6.25"/><circle cx="824.823" cy="160.417" r="6.25"/><circle cx="695.656" cy="160.417" r="6.25"/><circle cx="760.24" cy="160.417" r="6.25"/><circle cx="631.073" cy="160.417" r="6.25"/><circle cx="501.906" cy="160.417" r="6.25"/><circle cx="566.49" cy="160.417" r="6.25"/><circle cx="792.531" cy="214.583" r="6.25"/><circle cx="857.115" cy="214.583" r="6.25"/><circle cx="824.823" cy="268.75" r="6.25"/><circle cx="695.656" cy="268.75" r="6.25"/><circle cx="760.24" cy="268.75" r="6.25"/><circle cx="727.948" cy="214.583" r="6.25"/><circle cx="598.781" cy="214.583" r="6.25"/><circle cx="663.365" cy="214.583" r="6.25"/><circle cx="631.073" cy="268.75" r="6.25"/><circle cx="501.906" cy="268.75" r="6.25"/><circle cx="566.49" cy="268.75" r="6.25"/><circle cx="534.198" cy="214.583" r="6.25"/><circle cx="792.531" cy="322.917" r="6.25"/><circle cx="857.115" cy="322.917" r="6.25"/><circle cx="824.823" cy="377.083" r="6.25"/><circle cx="695.656" cy="377.083" r="6.25"/><circle cx="760.24" cy="377.083" r="6.25"/><circle cx="727.948" cy="322.917" r="6.25"/><circle cx="598.781" cy="322.917" r="6.25"/><circle cx="663.365" cy="322.917" r="6.25"/><circle cx="631.073" cy="377.083" r="6.25"/><circle cx="501.906" cy="377.083" r="6.25"/><circle cx="566.49" cy="377.083" r="6.25"/><circle cx="534.198" cy="322.917" r="6.25"/><circle cx="1244.62" cy="539.583" r="6.25"/><circle cx="889.406" cy="810.417" r="6.25"/><circle cx="1083.16" cy="918.75" r="6.25"/><circle cx="986.281" cy="864.583" r="6.25"/><circle cx="1018.57" cy="918.75" r="6.25"/><circle cx="889.406" cy="918.75" r="6.25"/><circle cx="953.99" cy="918.75" r="6.25"/><circle cx="921.698" cy="864.583" r="6.25"/><circle cx="1567.53" cy="539.583" r="6.25"/><circle cx="1632.12" cy="539.583" r="6.25"/><circle cx="1599.82" cy="593.75" r="6.25"/><circle cx="1470.66" cy="593.75" r="6.25"/><circle cx="1535.24" cy="593.75" r="6.25"/><circle cx="1502.95" cy="539.583" r="6.25"/><circle cx="1373.78" cy="539.583" r="6.25"/><circle cx="1438.37" cy="539.583" r="6.25"/><circle cx="1406.07" cy="593.75" r="6.25"/><circle cx="1276.91" cy="593.75" r="6.25"/><circle cx="1341.49" cy="593.75" r="6.25"/><circle cx="1309.2" cy="539.583" r="6.25"/><circle cx="1567.53" cy="647.917" r="6.25"/><circle cx="1632.12" cy="647.917" r="6.25"/><circle cx="1599.82" cy="702.083" r="6.25"/><circle cx="1470.66" cy="702.083" r="6.25"/><circle cx="1535.24" cy="702.083" r="6.25"/><circle cx="1502.95" cy="647.917" r="6.25"/><circle cx="1373.78" cy="647.917" r="6.25"/><circle cx="1438.37" cy="647.917" r="6.25"/><circle cx="1567.53" cy="756.25" r="6.25"/><circle cx="1632.12" cy="756.25" r="6.25"/><circle cx="1599.82" cy="810.417" r="6.25"/><circle cx="1632.12" cy="864.583" r="6.25"/><circle cx="1212.32" cy="160.417" r="6.25"/><circle cx="1083.16" cy="160.417" r="6.25"/><circle cx="1147.74" cy="160.417" r="6.25"/><circle cx="1018.57" cy="160.417" r="6.25"/><circle cx="889.406" cy="160.417" r="6.25"/><circle cx="953.99" cy="160.417" r="6.25"/><circle cx="1180.03" cy="214.583" r="6.25"/><circle cx="1244.62" cy="214.583" r="6.25"/><circle cx="1212.32" cy="268.75" r="6.25"/><circle cx="1083.16" cy="268.75" r="6.25"/><circle cx="1147.74" cy="268.75" r="6.25"/><circle cx="1115.45" cy="214.583" r="6.25"/><circle cx="986.281" cy="214.583" r="6.25"/><circle cx="1050.87" cy="214.583" r="6.25"/><circle cx="1018.57" cy="268.75" r="6.25"/><circle cx="889.406" cy="268.75" r="6.25"/><circle cx="953.99" cy="268.75" r="6.25"/><circle cx="921.698" cy="214.583" r="6.25"/><circle cx="1180.03" cy="322.917" r="6.25"/><circle cx="1244.62" cy="322.917" r="6.25"/><circle cx="1212.32" cy="377.083" r="6.25"/><circle cx="1083.16" cy="377.083" r="6.25"/><circle cx="1147.74" cy="377.083" r="6.25"/><circle cx="1115.45" cy="322.917" r="6.25"/><circle cx="986.281" cy="322.917" r="6.25"/><circle cx="1050.87" cy="322.917" r="6.25"/><circle cx="1018.57" cy="377.083" r="6.25"/><circle cx="889.406" cy="377.083" r="6.25"/><circle cx="953.99" cy="377.083" r="6.25"/><circle cx="921.698" cy="322.917" r="6.25"/><circle cx="1180.03" cy="431.25" r="6.25"/><circle cx="1244.62" cy="431.25" r="6.25"/><circle cx="1212.32" cy="485.417" r="6.25"/><circle cx="1083.16" cy="485.417" r="6.25"/><circle cx="1147.74" cy="485.417" r="6.25"/><circle cx="1115.45" cy="431.25" r="6.25"/><circle cx="986.281" cy="431.25" r="6.25"/><circle cx="1050.87" cy="431.25" r="6.25"/><circle cx="921.698" cy="431.25" r="6.25"/><circle cx="1599.82" cy="160.417" r="6.25"/><circle cx="1470.66" cy="160.417" r="6.25"/><circle cx="1535.24" cy="160.417" r="6.25"/><circle cx="1406.07" cy="160.417" r="6.25"/><circle cx="1276.91" cy="160.417" r="6.25"/><circle cx="1341.49" cy="160.417" r="6.25"/><circle cx="1567.53" cy="214.583" r="6.25"/><circle cx="1632.12" cy="214.583" r="6.25"/><circle cx="1599.82" cy="268.75" r="6.25"/><circle cx="1470.66" cy="268.75" r="6.25"/><circle cx="1535.24" cy="268.75" r="6.25"/><circle cx="1502.95" cy="214.583" r="6.25"/><circle cx="1373.78" cy="214.583" r="6.25"/><circle cx="1438.37" cy="214.583" r="6.25"/><circle cx="1406.07" cy="268.75" r="6.25"/><circle cx="1276.91" cy="268.75" r="6.25"/><circle cx="1341.49" cy="268.75" r="6.25"/><circle cx="1309.2" cy="214.583" r="6.25"/><circle cx="1567.53" cy="322.917" r="6.25"/><circle cx="1632.12" cy="322.917" r="6.25"/><circle cx="1599.82" cy="377.083" r="6.25"/><circle cx="1470.66" cy="377.083" r="6.25"/><circle cx="1535.24" cy="377.083" r="6.25"/><circle cx="1502.95" cy="322.917" r="6.25"/><circle cx="1373.78" cy="322.917" r="6.25"/><circle cx="1438.37" cy="322.917" r="6.25"/><circle cx="1406.07" cy="377.083" r="6.25"/><circle cx="1276.91" cy="377.083" r="6.25"/><circle cx="1341.49" cy="377.083" r="6.25"/><circle cx="1309.2" cy="322.917" r="6.25"/><circle cx="1567.53" cy="431.25" r="6.25"/><circle cx="1632.12" cy="431.25" r="6.25"/><circle cx="1599.82" cy="485.417" r="6.25"/><circle cx="1470.66" cy="485.417" r="6.25"/><circle cx="1535.24" cy="485.417" r="6.25"/><circle cx="1502.95" cy="431.25" r="6.25"/><circle cx="1373.78" cy="431.25" r="6.25"/><circle cx="1438.37" cy="431.25" r="6.25"/><circle cx="1406.07" cy="485.417" r="6.25"/><circle cx="1276.91" cy="485.417" r="6.25"/><circle cx="1341.49" cy="485.417" r="6.25"/><circle cx="1309.2" cy="431.25" r="6.25"/><circle cx="1955.03" cy="539.583" r="6.25"/><circle cx="2019.62" cy="539.583" r="6.25"/><circle cx="1987.32" cy="593.75" r="6.25"/><circle cx="1858.16" cy="593.75" r="6.25"/><circle cx="1922.74" cy="593.75" r="6.25"/><circle cx="1890.45" cy="539.583" r="6.25"/><circle cx="1761.28" cy="539.583" r="6.25"/><circle cx="1825.87" cy="539.583" r="6.25"/><circle cx="1793.57" cy="593.75" r="6.25"/><circle cx="1664.41" cy="593.75" r="6.25"/><circle cx="1728.99" cy="593.75" r="6.25"/><circle cx="1696.7" cy="539.583" r="6.25"/><circle cx="1955.03" cy="647.917" r="6.25"/><circle cx="2019.62" cy="647.917" r="6.25"/><circle cx="1987.32" cy="702.083" r="6.25"/><circle cx="1858.16" cy="702.083" r="6.25"/><circle cx="1922.74" cy="702.083" r="6.25"/><circle cx="1890.45" cy="647.917" r="6.25"/><circle cx="1761.28" cy="647.917" r="6.25"/><circle cx="1825.87" cy="647.917" r="6.25"/><circle cx="1793.57" cy="702.083" r="6.25"/><circle cx="1664.41" cy="702.083" r="6.25"/><circle cx="1728.99" cy="702.083" r="6.25"/><circle cx="1696.7" cy="647.917" r="6.25"/><circle cx="1955.03" cy="756.25" r="6.25"/><circle cx="2019.62" cy="756.25" r="6.25"/><circle cx="1987.32" cy="810.417" r="6.25"/><circle cx="1858.16" cy="810.417" r="6.25"/><circle cx="1922.74" cy="810.417" r="6.25"/><circle cx="1890.45" cy="756.25" r="6.25"/><circle cx="1761.28" cy="756.25" r="6.25"/><circle cx="1825.87" cy="756.25" r="6.25"/><circle cx="1793.57" cy="810.417" r="6.25"/><circle cx="1664.41" cy="810.417" r="6.25"/><circle cx="1728.99" cy="810.417" r="6.25"/><circle cx="1696.7" cy="756.25" r="6.25"/><circle cx="1955.03" cy="864.583" r="6.25"/><circle cx="2019.62" cy="864.583" r="6.25"/><circle cx="1987.32" cy="918.75" r="6.25"/><circle cx="1858.16" cy="918.75" r="6.25"/><circle cx="1922.74" cy="918.75" r="6.25"/><circle cx="1890.45" cy="864.583" r="6.25"/><circle cx="1761.28" cy="864.583" r="6.25"/><circle cx="1825.87" cy="864.583" r="6.25"/><circle cx="1793.57" cy="918.75" r="6.25"/><circle cx="1728.99" cy="918.75" r="6.25"/><circle cx="1696.7" cy="864.583" r="6.25"/><circle cx="2051.91" cy="593.75" r="6.25"/><circle cx="2116.49" cy="593.75" r="6.25"/><circle cx="2084.2" cy="539.583" r="6.25"/><circle cx="2051.91" cy="702.083" r="6.25"/><circle cx="2116.49" cy="702.083" r="6.25"/><circle cx="2084.2" cy="647.917" r="6.25"/><circle cx="2051.91" cy="810.417" r="6.25"/><circle cx="2116.49" cy="810.417" r="6.25"/><circle cx="2084.2" cy="756.25" r="6.25"/><circle cx="2051.91" cy="918.75" r="6.25"/><circle cx="2116.49" cy="918.75" r="6.25"/><circle cx="2084.2" cy="864.583" r="6.25"/><circle cx="1793.57" cy="160.417" r="6.25"/><circle cx="1664.41" cy="160.417" r="6.25"/><circle cx="1728.99" cy="160.417" r="6.25"/><circle cx="1858.16" cy="268.75" r="6.25"/><circle cx="1922.74" cy="268.75" r="6.25"/><circle cx="1890.45" cy="214.583" r="6.25"/><circle cx="1761.28" cy="214.583" r="6.25"/><circle cx="1825.87" cy="214.583" r="6.25"/><circle cx="1793.57" cy="268.75" r="6.25"/><circle cx="1664.41" cy="268.75" r="6.25"/><circle cx="1728.99" cy="268.75" r="6.25"/><circle cx="1696.7" cy="214.583" r="6.25"/><circle cx="1955.03" cy="322.917" r="6.25"/><circle cx="2019.62" cy="322.917" r="6.25"/><circle cx="1987.32" cy="377.083" r="6.25"/><circle cx="1858.16" cy="377.083" r="6.25"/><circle cx="1922.74" cy="377.083" r="6.25"/><circle cx="1890.45" cy="322.917" r="6.25"/><circle cx="1761.28" cy="322.917" r="6.25"/><circle cx="1825.87" cy="322.917" r="6.25"/><circle cx="1793.57" cy="377.083" r="6.25"/><circle cx="1664.41" cy="377.083" r="6.25"/><circle cx="1728.99" cy="377.083" r="6.25"/><circle cx="1696.7" cy="322.917" r="6.25"/><circle cx="1955.03" cy="431.25" r="6.25"/><circle cx="2019.62" cy="431.25" r="6.25"/><circle cx="1987.32" cy="485.417" r="6.25"/><circle cx="1858.16" cy="485.417" r="6.25"/><circle cx="1922.74" cy="485.417" r="6.25"/><circle cx="1890.45" cy="431.25" r="6.25"/><circle cx="1761.28" cy="431.25" r="6.25"/><circle cx="1825.87" cy="431.25" r="6.25"/><circle cx="1793.57" cy="485.417" r="6.25"/><circle cx="1664.41" cy="485.417" r="6.25"/><circle cx="1728.99" cy="485.417" r="6.25"/><circle cx="1696.7" cy="431.25" r="6.25"/><circle cx="2051.91" cy="377.083" r="6.25"/><circle cx="2051.91" cy="485.417" r="6.25"/><circle cx="2084.2" cy="431.25" r="6.25"/><circle cx="405.031" cy="1406.25" r="6.25"/><circle cx="469.615" cy="1406.25" r="6.25"/><circle cx="437.323" cy="1460.42" r="6.25"/><circle cx="308.156" cy="1460.42" r="6.25"/><circle cx="372.74" cy="1460.42" r="6.25"/><circle cx="340.448" cy="1406.25" r="6.25"/><circle cx="211.281" cy="1406.25" r="6.25"/><circle cx="275.865" cy="1406.25" r="6.25"/><circle cx="243.573" cy="1460.42" r="6.25"/><circle cx="178.99" cy="1460.42" r="6.25"/><circle cx="146.698" cy="1406.25" r="6.25"/><circle cx="405.031" cy="1514.58" r="6.25"/><circle cx="469.615" cy="1514.58" r="6.25"/><circle cx="437.323" cy="1568.75" r="6.25"/><circle cx="308.156" cy="1568.75" r="6.25"/><circle cx="372.74" cy="1568.75" r="6.25"/><circle cx="340.448" cy="1514.58" r="6.25"/><circle cx="211.281" cy="1514.58" r="6.25"/><circle cx="275.865" cy="1514.58" r="6.25"/><circle cx="243.573" cy="1568.75" r="6.25"/><circle cx="178.99" cy="1568.75" r="6.25"/><circle cx="146.698" cy="1514.58" r="6.25"/><circle cx="405.031" cy="1622.92" r="6.25"/><circle cx="469.615" cy="1622.92" r="6.25"/><circle cx="437.323" cy="1677.08" r="6.25"/><circle cx="308.156" cy="1677.08" r="6.25"/><circle cx="372.74" cy="1677.08" r="6.25"/><circle cx="340.448" cy="1622.92" r="6.25"/><circle cx="211.281" cy="1622.92" r="6.25"/><circle cx="275.865" cy="1622.92" r="6.25"/><circle cx="243.573" cy="1677.08" r="6.25"/><circle cx="178.99" cy="1677.08" r="6.25"/><circle cx="146.698" cy="1622.92" r="6.25"/><circle cx="405.031" cy="1731.25" r="6.25"/><circle cx="437.323" cy="1785.42" r="6.25"/><circle cx="308.156" cy="1785.42" r="6.25"/><circle cx="372.74" cy="1785.42" r="6.25"/><circle cx="340.448" cy="1731.25" r="6.25"/><circle cx="211.281" cy="1731.25" r="6.25"/><circle cx="275.865" cy="1731.25" r="6.25"/><circle cx="243.573" cy="1785.42" r="6.25"/><circle cx="178.99" cy="1785.42" r="6.25"/><circle cx="146.698" cy="1731.25" r="6.25"/><circle cx="792.531" cy="1406.25" r="6.25"/><circle cx="857.115" cy="1406.25" r="6.25"/><circle cx="824.823" cy="1460.42" r="6.25"/><circle cx="695.656" cy="1460.42" r="6.25"/><circle cx="760.24" cy="1460.42" r="6.25"/><circle cx="727.948" cy="1406.25" r="6.25"/><circle cx="598.781" cy="1406.25" r="6.25"/><circle cx="663.365" cy="1406.25" r="6.25"/><circle cx="631.073" cy="1460.42" r="6.25"/><circle cx="501.906" cy="1460.42" r="6.25"/><circle cx="566.49" cy="1460.42" r="6.25"/><circle cx="534.198" cy="1406.25" r="6.25"/><circle cx="792.531" cy="1514.58" r="6.25"/><circle cx="857.115" cy="1514.58" r="6.25"/><circle cx="824.823" cy="1568.75" r="6.25"/><circle cx="760.24" cy="1568.75" r="6.25"/><circle cx="727.948" cy="1514.58" r="6.25"/><circle cx="598.781" cy="1514.58" r="6.25"/><circle cx="663.365" cy="1514.58" r="6.25"/><circle cx="501.906" cy="1568.75" r="6.25"/><circle cx="534.198" cy="1514.58" r="6.25"/><circle cx="857.115" cy="1622.92" r="6.25"/><circle cx="857.115" cy="1731.25" r="6.25"/><circle cx="308.156" cy="1027.08" r="6.25"/><circle cx="340.448" cy="972.917" r="6.25"/><circle cx="211.281" cy="972.917" r="6.25"/><circle cx="275.865" cy="972.917" r="6.25"/><circle cx="243.573" cy="1027.08" r="6.25"/><circle cx="178.99" cy="1027.08" r="6.25"/><circle cx="146.698" cy="972.917" r="6.25"/><circle cx="308.156" cy="1135.42" r="6.25"/><circle cx="211.281" cy="1081.25" r="6.25"/><circle cx="275.865" cy="1081.25" r="6.25"/><circle cx="243.573" cy="1135.42" r="6.25"/><circle cx="178.99" cy="1135.42" r="6.25"/><circle cx="146.698" cy="1081.25" r="6.25"/><circle cx="308.156" cy="1243.75" r="6.25"/><circle cx="372.74" cy="1243.75" r="6.25"/><circle cx="340.448" cy="1189.58" r="6.25"/><circle cx="211.281" cy="1189.58" r="6.25"/><circle cx="275.865" cy="1189.58" r="6.25"/><circle cx="243.573" cy="1243.75" r="6.25"/><circle cx="178.99" cy="1243.75" r="6.25"/><circle cx="146.698" cy="1189.58" r="6.25"/><circle cx="405.031" cy="1297.92" r="6.25"/><circle cx="469.615" cy="1297.92" r="6.25"/><circle cx="437.323" cy="1352.08" r="6.25"/><circle cx="308.156" cy="1352.08" r="6.25"/><circle cx="372.74" cy="1352.08" r="6.25"/><circle cx="340.448" cy="1297.92" r="6.25"/><circle cx="211.281" cy="1297.92" r="6.25"/><circle cx="275.865" cy="1297.92" r="6.25"/><circle cx="243.573" cy="1352.08" r="6.25"/><circle cx="178.99" cy="1352.08" r="6.25"/><circle cx="146.698" cy="1297.92" r="6.25"/><circle cx="792.531" cy="972.917" r="6.25"/><circle cx="857.115" cy="972.917" r="6.25"/><circle cx="695.656" cy="1352.08" r="6.25"/><circle cx="760.24" cy="1352.08" r="6.25"/><circle cx="598.781" cy="1297.92" r="6.25"/><circle cx="631.073" cy="1352.08" r="6.25"/><circle cx="501.906" cy="1352.08" r="6.25"/><circle cx="566.49" cy="1352.08" r="6.25"/><circle cx="534.198" cy="1297.92" r="6.25"/><circle cx="889.406" cy="1460.42" r="6.25"/><circle cx="986.281" cy="1514.58" r="6.25"/><circle cx="1018.57" cy="1568.75" r="6.25"/><circle cx="889.406" cy="1568.75" r="6.25"/><circle cx="953.99" cy="1568.75" r="6.25"/><circle cx="921.698" cy="1514.58" r="6.25"/><circle cx="1083.16" cy="1677.08" r="6.25"/><circle cx="986.281" cy="1622.92" r="6.25"/><circle cx="1050.87" cy="1622.92" r="6.25"/><circle cx="1018.57" cy="1677.08" r="6.25"/><circle cx="889.406" cy="1677.08" r="6.25"/><circle cx="953.99" cy="1677.08" r="6.25"/><circle cx="921.698" cy="1622.92" r="6.25"/><circle cx="1083.16" cy="1785.42" r="6.25"/><circle cx="1147.74" cy="1785.42" r="6.25"/><circle cx="1115.45" cy="1731.25" r="6.25"/><circle cx="986.281" cy="1731.25" r="6.25"/><circle cx="1050.87" cy="1731.25" r="6.25"/><circle cx="1018.57" cy="1785.42" r="6.25"/><circle cx="889.406" cy="1785.42" r="6.25"/><circle cx="953.99" cy="1785.42" r="6.25"/><circle cx="921.698" cy="1731.25" r="6.25"/><circle cx="1567.53" cy="1406.25" r="6.25"/><circle cx="1470.66" cy="1460.42" r="6.25"/><circle cx="1535.24" cy="1460.42" r="6.25"/><circle cx="1502.95" cy="1406.25" r="6.25"/><circle cx="1373.78" cy="1406.25" r="6.25"/><circle cx="1438.37" cy="1406.25" r="6.25"/><circle cx="1406.07" cy="1460.42" r="6.25"/><circle cx="1567.53" cy="1514.58" r="6.25"/><circle cx="1599.82" cy="1568.75" r="6.25"/><circle cx="1470.66" cy="1568.75" r="6.25"/><circle cx="1535.24" cy="1568.75" r="6.25"/><circle cx="1502.95" cy="1514.58" r="6.25"/><circle cx="1438.37" cy="1514.58" r="6.25"/><circle cx="1567.53" cy="1622.92" r="6.25"/><circle cx="1632.12" cy="1622.92" r="6.25"/><circle cx="1599.82" cy="1677.08" r="6.25"/><circle cx="1470.66" cy="1677.08" r="6.25"/><circle cx="1535.24" cy="1677.08" r="6.25"/><circle cx="1502.95" cy="1622.92" r="6.25"/><circle cx="1567.53" cy="1731.25" r="6.25"/><circle cx="1632.12" cy="1731.25" r="6.25"/><circle cx="1599.82" cy="1785.42" r="6.25"/><circle cx="1470.66" cy="1785.42" r="6.25"/><circle cx="1535.24" cy="1785.42" r="6.25"/><circle cx="1502.95" cy="1731.25" r="6.25"/><circle cx="1180.03" cy="972.917" r="6.25"/><circle cx="1212.32" cy="1027.08" r="6.25"/><circle cx="1083.16" cy="1027.08" r="6.25"/><circle cx="1147.74" cy="1027.08" r="6.25"/><circle cx="1115.45" cy="972.917" r="6.25"/><circle cx="986.281" cy="972.917" r="6.25"/><circle cx="1050.87" cy="972.917" r="6.25"/><circle cx="1018.57" cy="1027.08" r="6.25"/><circle cx="953.99" cy="1027.08" r="6.25"/><circle cx="921.698" cy="972.917" r="6.25"/><circle cx="1180.03" cy="1081.25" r="6.25"/><circle cx="1244.62" cy="1081.25" r="6.25"/><circle cx="1212.32" cy="1135.42" r="6.25"/><circle cx="1147.74" cy="1135.42" r="6.25"/><circle cx="1115.45" cy="1081.25" r="6.25"/><circle cx="1050.87" cy="1081.25" r="6.25"/><circle cx="1180.03" cy="1189.58" r="6.25"/><circle cx="1244.62" cy="1189.58" r="6.25"/><circle cx="1276.91" cy="1135.42" r="6.25"/><circle cx="1341.49" cy="1135.42" r="6.25"/><circle cx="1309.2" cy="1081.25" r="6.25"/><circle cx="1470.66" cy="1243.75" r="6.25"/><circle cx="1373.78" cy="1189.58" r="6.25"/><circle cx="1406.07" cy="1243.75" r="6.25"/><circle cx="1276.91" cy="1243.75" r="6.25"/><circle cx="1341.49" cy="1243.75" r="6.25"/><circle cx="1309.2" cy="1189.58" r="6.25"/><circle cx="1470.66" cy="1352.08" r="6.25"/><circle cx="1535.24" cy="1352.08" r="6.25"/><circle cx="1502.95" cy="1297.92" r="6.25"/><circle cx="1373.78" cy="1297.92" r="6.25"/><circle cx="1438.37" cy="1297.92" r="6.25"/><circle cx="1406.07" cy="1352.08" r="6.25"/><circle cx="1341.49" cy="1352.08" r="6.25"/><circle cx="1309.2" cy="1297.92" r="6.25"/><circle cx="2019.62" cy="1406.25" r="6.25"/><circle cx="1987.32" cy="1460.42" r="6.25"/><circle cx="2019.62" cy="1514.58" r="6.25"/><circle cx="2019.62" cy="1622.92" r="6.25"/><circle cx="1987.32" cy="1677.08" r="6.25"/><circle cx="1664.41" cy="1677.08" r="6.25"/><circle cx="1955.03" cy="1731.25" r="6.25"/><circle cx="2019.62" cy="1731.25" r="6.25"/><circle cx="1987.32" cy="1785.42" r="6.25"/><circle cx="1858.16" cy="1785.42" r="6.25"/><circle cx="1922.74" cy="1785.42" r="6.25"/><circle cx="1793.57" cy="1785.42" r="6.25"/><circle cx="1664.41" cy="1785.42" r="6.25"/><circle cx="1728.99" cy="1785.42" r="6.25"/><circle cx="1696.7" cy="1731.25" r="6.25"/><circle cx="2051.91" cy="1460.42" r="6.25"/><circle cx="2116.49" cy="1460.42" r="6.25"/><circle cx="2084.2" cy="1406.25" r="6.25"/><circle cx="2051.91" cy="1568.75" r="6.25"/><circle cx="2116.49" cy="1568.75" r="6.25"/><circle cx="2084.2" cy="1514.58" r="6.25"/><circle cx="2051.91" cy="1677.08" r="6.25"/><circle cx="2116.49" cy="1677.08" r="6.25"/><circle cx="2084.2" cy="1622.92" r="6.25"/><circle cx="2051.91" cy="1785.42" r="6.25"/><circle cx="2084.2" cy="1731.25" r="6.25"/><circle cx="1955.03" cy="972.917" r="6.25"/><circle cx="2019.62" cy="972.917" r="6.25"/><circle cx="1987.32" cy="1027.08" r="6.25"/><circle cx="1858.16" cy="1027.08" r="6.25"/><circle cx="1922.74" cy="1027.08" r="6.25"/><circle cx="1890.45" cy="972.917" r="6.25"/><circle cx="1761.28" cy="972.917" r="6.25"/><circle cx="1825.87" cy="972.917" r="6.25"/><circle cx="1793.57" cy="1027.08" r="6.25"/><circle cx="1955.03" cy="1081.25" r="6.25"/><circle cx="2019.62" cy="1081.25" r="6.25"/><circle cx="1987.32" cy="1135.42" r="6.25"/><circle cx="1858.16" cy="1135.42" r="6.25"/><circle cx="1922.74" cy="1135.42" r="6.25"/><circle cx="1890.45" cy="1081.25" r="6.25"/><circle cx="1825.87" cy="1081.25" r="6.25"/><circle cx="1955.03" cy="1189.58" r="6.25"/><circle cx="2019.62" cy="1189.58" r="6.25"/><circle cx="1987.32" cy="1243.75" r="6.25"/><circle cx="1922.74" cy="1243.75" r="6.25"/><circle cx="1890.45" cy="1189.58" r="6.25"/><circle cx="1955.03" cy="1297.92" r="6.25"/><circle cx="2019.62" cy="1297.92" r="6.25"/><circle cx="1987.32" cy="1352.08" r="6.25"/><circle cx="2051.91" cy="1027.08" r="6.25"/><circle cx="2116.49" cy="1027.08" r="6.25"/><circle cx="2084.2" cy="972.917" r="6.25"/><circle cx="2051.91" cy="1135.42" r="6.25"/><circle cx="2116.49" cy="1135.42" r="6.25"/><circle cx="2084.2" cy="1081.25" r="6.25"/><circle cx="2051.91" cy="1243.75" r="6.25"/><circle cx="2116.49" cy="1243.75" r="6.25"/><circle cx="2084.2" cy="1189.58" r="6.25"/><circle cx="2051.91" cy="1352.08" r="6.25"/><circle cx="2116.49" cy="1352.08" r="6.25"/><circle cx="2084.2" cy="1297.92" r="6.25"/><circle cx="405.031" cy="1839.58" r="6.25"/><circle cx="469.615" cy="1839.58" r="6.25"/><circle cx="437.323" cy="1893.75" r="6.25"/><circle cx="308.156" cy="1893.75" r="6.25"/><circle cx="372.74" cy="1893.75" r="6.25"/><circle cx="340.448" cy="1839.58" r="6.25"/><circle cx="211.281" cy="1839.58" r="6.25"/><circle cx="275.865" cy="1839.58" r="6.25"/><circle cx="243.573" cy="1893.75" r="6.25"/><circle cx="405.031" cy="1947.92" r="6.25"/><circle cx="469.615" cy="1947.92" r="6.25"/><circle cx="437.323" cy="2002.08" r="6.25"/><circle cx="372.74" cy="2002.08" r="6.25"/><circle cx="340.448" cy="1947.92" r="6.25"/><circle cx="275.865" cy="1947.92" r="6.25"/><circle cx="405.031" cy="2056.25" r="6.25"/><circle cx="469.615" cy="2056.25" r="6.25"/><circle cx="857.115" cy="1839.58" r="6.25"/><circle cx="824.823" cy="1893.75" r="6.25"/><circle cx="760.24" cy="1893.75" r="6.25"/><circle cx="501.906" cy="1893.75" r="6.25"/><circle cx="792.531" cy="1947.92" r="6.25"/><circle cx="857.115" cy="1947.92" r="6.25"/><circle cx="824.823" cy="2002.08" r="6.25"/><circle cx="695.656" cy="2002.08" r="6.25"/><circle cx="760.24" cy="2002.08" r="6.25"/><circle cx="727.948" cy="1947.92" r="6.25"/><circle cx="598.781" cy="1947.92" r="6.25"/><circle cx="663.365" cy="1947.92" r="6.25"/><circle cx="631.073" cy="2002.08" r="6.25"/><circle cx="501.906" cy="2002.08" r="6.25"/><circle cx="566.49" cy="2002.08" r="6.25"/><circle cx="534.198" cy="1947.92" r="6.25"/><circle cx="792.531" cy="2056.25" r="6.25"/><circle cx="857.115" cy="2056.25" r="6.25"/><circle cx="824.823" cy="2110.42" r="6.25"/><circle cx="695.656" cy="2110.42" r="6.25"/><circle cx="760.24" cy="2110.42" r="6.25"/><circle cx="727.948" cy="2056.25" r="6.25"/><circle cx="598.781" cy="2056.25" r="6.25"/><circle cx="663.365" cy="2056.25" r="6.25"/><circle cx="631.073" cy="2110.42" r="6.25"/><circle cx="501.906" cy="2110.42" r="6.25"/><circle cx="566.49" cy="2110.42" r="6.25"/><circle cx="534.198" cy="2056.25" r="6.25"/><circle cx="1180.03" cy="1839.58" r="6.25"/><circle cx="1212.32" cy="1893.75" r="6.25"/><circle cx="1083.16" cy="1893.75" r="6.25"/><circle cx="1147.74" cy="1893.75" r="6.25"/><circle cx="1115.45" cy="1839.58" r="6.25"/><circle cx="986.281" cy="1839.58" r="6.25"/><circle cx="1050.87" cy="1839.58" r="6.25"/><circle cx="1018.57" cy="1893.75" r="6.25"/><circle cx="889.406" cy="1893.75" r="6.25"/><circle cx="953.99" cy="1893.75" r="6.25"/><circle cx="921.698" cy="1839.58" r="6.25"/><circle cx="1180.03" cy="1947.92" r="6.25"/><circle cx="1244.62" cy="1947.92" r="6.25"/><circle cx="1212.32" cy="2002.08" r="6.25"/><circle cx="1083.16" cy="2002.08" r="6.25"/><circle cx="1147.74" cy="2002.08" r="6.25"/><circle cx="1115.45" cy="1947.92" r="6.25"/><circle cx="986.281" cy="1947.92" r="6.25"/><circle cx="1050.87" cy="1947.92" r="6.25"/><circle cx="1018.57" cy="2002.08" r="6.25"/><circle cx="889.406" cy="2002.08" r="6.25"/><circle cx="953.99" cy="2002.08" r="6.25"/><circle cx="921.698" cy="1947.92" r="6.25"/><circle cx="1180.03" cy="2056.25" r="6.25"/><circle cx="1244.62" cy="2056.25" r="6.25"/><circle cx="1212.32" cy="2110.42" r="6.25"/><circle cx="1083.16" cy="2110.42" r="6.25"/><circle cx="1147.74" cy="2110.42" r="6.25"/><circle cx="1115.45" cy="2056.25" r="6.25"/><circle cx="986.281" cy="2056.25" r="6.25"/><circle cx="1050.87" cy="2056.25" r="6.25"/><circle cx="1018.57" cy="2110.42" r="6.25"/><circle cx="889.406" cy="2110.42" r="6.25"/><circle cx="953.99" cy="2110.42" r="6.25"/><circle cx="921.698" cy="2056.25" r="6.25"/><circle cx="1567.53" cy="1839.58" r="6.25"/><circle cx="1632.12" cy="1839.58" r="6.25"/><circle cx="1599.82" cy="1893.75" r="6.25"/><circle cx="1470.66" cy="1893.75" r="6.25"/><circle cx="1535.24" cy="1893.75" r="6.25"/><circle cx="1502.95" cy="1839.58" r="6.25"/><circle cx="1373.78" cy="1839.58" r="6.25"/><circle cx="1438.37" cy="1839.58" r="6.25"/><circle cx="1406.07" cy="1893.75" r="6.25"/><circle cx="1276.91" cy="1893.75" r="6.25"/><circle cx="1341.49" cy="1893.75" r="6.25"/><circle cx="1567.53" cy="1947.92" r="6.25"/><circle cx="1632.12" cy="1947.92" r="6.25"/><circle cx="1599.82" cy="2002.08" r="6.25"/><circle cx="1470.66" cy="2002.08" r="6.25"/><circle cx="1535.24" cy="2002.08" r="6.25"/><circle cx="1502.95" cy="1947.92" r="6.25"/><circle cx="1373.78" cy="1947.92" r="6.25"/><circle cx="1438.37" cy="1947.92" r="6.25"/><circle cx="1406.07" cy="2002.08" r="6.25"/><circle cx="1276.91" cy="2002.08" r="6.25"/><circle cx="1341.49" cy="2002.08" r="6.25"/><circle cx="1309.2" cy="1947.92" r="6.25"/><circle cx="1567.53" cy="2056.25" r="6.25"/><circle cx="1632.12" cy="2056.25" r="6.25"/><circle cx="1599.82" cy="2110.42" r="6.25"/><circle cx="1470.66" cy="2110.42" r="6.25"/><circle cx="1535.24" cy="2110.42" r="6.25"/><circle cx="1502.95" cy="2056.25" r="6.25"/><circle cx="1373.78" cy="2056.25" r="6.25"/><circle cx="1438.37" cy="2056.25" r="6.25"/><circle cx="1406.07" cy="2110.42" r="6.25"/><circle cx="1276.91" cy="2110.42" r="6.25"/><circle cx="1341.49" cy="2110.42" r="6.25"/><circle cx="1309.2" cy="2056.25" r="6.25"/><circle cx="1955.03" cy="1839.58" r="6.25"/><circle cx="2019.62" cy="1839.58" r="6.25"/><circle cx="1987.32" cy="1893.75" r="6.25"/><circle cx="1858.16" cy="1893.75" r="6.25"/><circle cx="1922.74" cy="1893.75" r="6.25"/><circle cx="1890.45" cy="1839.58" r="6.25"/><circle cx="1761.28" cy="1839.58" r="6.25"/><circle cx="1825.87" cy="1839.58" r="6.25"/><circle cx="1793.57" cy="1893.75" r="6.25"/><circle cx="1664.41" cy="1893.75" r="6.25"/><circle cx="1728.99" cy="1893.75" r="6.25"/><circle cx="1696.7" cy="1839.58" r="6.25"/><circle cx="1955.03" cy="1947.92" r="6.25"/><circle cx="1858.16" cy="2002.08" r="6.25"/><circle cx="1922.74" cy="2002.08" r="6.25"/><circle cx="1890.45" cy="1947.92" r="6.25"/><circle cx="1761.28" cy="1947.92" r="6.25"/><circle cx="1825.87" cy="1947.92" r="6.25"/><circle cx="1793.57" cy="2002.08" r="6.25"/><circle cx="1664.41" cy="2002.08" r="6.25"/><circle cx="1728.99" cy="2002.08" r="6.25"/><circle cx="1696.7" cy="1947.92" r="6.25"/><circle cx="1761.28" cy="2056.25" r="6.25"/><circle cx="1825.87" cy="2056.25" r="6.25"/><circle cx="1664.41" cy="2110.42" r="6.25"/><circle cx="1728.99" cy="2110.42" r="6.25"/><circle cx="1696.7" cy="2056.25" r="6.25"/></g></g><path fill="#02060a" fill-opacity=".66" d="M125 1593.75V1625c0 275.958 224.042 500 500 500h1000c275.958 0 500-224.042 500-500v-31.25c0 275.958-224.042 500-500 500H625c-275.958 0-500-224.042-500-500z"/></svg>