<svg clip-rule="evenodd" fill-rule="evenodd" stroke-linejoin="round" stroke-miterlimit="2" viewBox="0 0 48 48" xmlns="http://www.w3.org/2000/svg" xmlns:xlink="http://www.w3.org/1999/xlink"><clipPath id="a"><path clip-rule="evenodd" d="m46 13c0-6.071-4.929-11-11-11h-22c-6.071 0-11 4.929-11 11v22c0 6.071 4.929 11 11 11h22c6.071 0 11-4.929 11-11z"/></clipPath><clipPath id="b"><path clip-rule="evenodd" d="m46 13c0-6.071-4.929-11-11-11h-22c-6.071 0-11 4.929-11 11v22c0 6.071 4.929 11 11 11h22c6.071 0 11-4.929 11-11z"/></clipPath><path d="m46 13c0-6.071-4.929-11-11-11h-22c-6.071 0-11 4.929-11 11v22c0 6.071 4.929 11 11 11h22c6.071 0 11-4.929 11-11z"/><g clip-path="url(#a)"><path d="m43.099 48-23.478-46.958h46.957z" fill="#cac7c6"/><path d="m43.099 39.7-23.478-46.958h46.957z" fill="#6a8464"/><path d="m43.099 31.479-23.478-46.958h46.957z" fill="#fff"/><path d="m43.099 23.179-23.478-46.958h46.957z"/><path d="m43.099 14.937-23.478-46.958h46.957z" fill="#cac7c6"/><path d="m43.099 6.637-23.478-46.958h46.957z" fill="#6a8464"/><path d="m14-2.078 25.014 50.028h-50.028z" fill="#cac7c6"/><path d="m14 6.222 23.479 46.958h-46.958z" fill="#6a8464"/><path d="m14 14.443 23.479 46.958h-46.958z" fill="#fff"/><path d="m14 22.743 23.479 46.958h-46.958z"/><path d="m14 30.985 23.479 46.958h-46.958z" fill="#cac7c6"/><path d="m14 39.285 23.479 46.958h-46.958z" fill="#6a8464"/><path d="m-15.133 48-23.479-46.958h46.958z" fill="#cac7c6"/><path d="m-15.133 39.7-23.479-46.958h46.958z" fill="#6a8464"/><path d="m-15.133 31.479-23.479-46.958h46.958z" fill="#fff"/><path d="m-15.133 23.179-23.479-46.958h46.958z"/><path d="m-15.133 14.937-23.479-46.958h46.958z" fill="#cac7c6"/><path d="m-15.133 6.637-23.479-46.958h46.958z" fill="#6a8464"/><path d="m1 1h46v46h-46z" fill-opacity=".22"/></g><path d="m46 13c0-6.071-4.929-11-11-11h-22c-6.071 0-11 4.929-11 11v22c0 6.071 4.929 11 11 11h22c6.071 0 11-4.929 11-11z"/><g clip-path="url(#b)"><path d="m43.099 48-23.478-46.958h46.957z" fill="#cac7c6"/><path d="m43.099 39.7-23.478-46.958h46.957z" fill="#6a8464"/><path d="m43.099 31.479-23.478-46.958h46.957z" fill="#fff"/><path d="m43.099 23.179-23.478-46.958h46.957z"/><path d="m43.099 14.937-23.478-46.958h46.957z" fill="#cac7c6"/><path d="m43.099 6.637-23.478-46.958h46.957z" fill="#6a8464"/><path d="m14-2.078 25.014 50.028h-50.028z" fill="#cac7c6"/><path d="m14 6.222 23.479 46.958h-46.958z" fill="#6a8464"/><path d="m14 14.443 23.479 46.958h-46.958z" fill="#fff"/><path d="m14 22.743 23.479 46.958h-46.958z"/><path d="m14 30.985 23.479 46.958h-46.958z" fill="#cac7c6"/><path d="m14 39.285 23.479 46.958h-46.958z" fill="#6a8464"/><path d="m-15.133 48-23.479-46.958h46.958z" fill="#cac7c6"/><path d="m-15.133 39.7-23.479-46.958h46.958z" fill="#6a8464"/><path d="m-15.133 31.479-23.479-46.958h46.958z" fill="#fff"/><path d="m-15.133 23.179-23.479-46.958h46.958z"/><path d="m-15.133 14.937-23.479-46.958h46.958z" fill="#cac7c6"/><path d="m-15.133 6.637-23.479-46.958h46.958z" fill="#6a8464"/><path d="m1 1h46v46h-46z" fill-opacity=".22"/></g><path d="m9 9h30v30h-30z" fill="#6a8464"/><path d="m10 10h28v28h-28z" fill="#dedcdb"/><circle cx="15.662" cy="32.339" r="2.674"/><path d="m15.249 21.119c-1.194-.199-2.261.782-2.261 1.991 0 1.01.754 1.82 1.749 1.991 4.153.725 7.424 4.01 8.163 8.163.171.995.982 1.749 1.991 1.749 1.209 0 2.19-1.067 2.005-2.261-.967-5.973-5.674-10.68-11.647-11.633zm-.042-8.12c-1.181-.128-2.219.825-2.219 2.005 0 1.038.782 1.891 1.806 1.991 8.547.853 15.345 7.651 16.198 16.198.1 1.038.953 1.82 1.991 1.82 1.195 0 2.133-1.038 2.019-2.219-1.038-10.438-9.343-18.757-19.795-19.795z" fill-rule="nonzero"/></svg>